  0
SECTION
  2
HEADER
  9
$EXTMIN
 10
0.390945
 20
0.390945
 30
0.0000
  9
$EXTMAX
 10
2.695407
 20
4.046588
 30
0.0000
  0
ENDSEC
  0
SECTION
  2
TABLES
  0
TABLE
  2
LTYPE
 70
3
  0
LTYPE
  2
BYBLOCK
 70
0
  3

 72
65
 73
0
 40
0.0000
  0
LTYPE
  2
BYLAYER
 70
0
  3

 72
65
 73
0
 40
0.0000
  0
LTYPE
  2
CONTINUOUS
 70
0
  3
Solid line
 72
65
 73
0
 40
0.0000
  0
ENDTAB
  0
TABLE
  2
LAYER
 70
4
  0
LAYER
  2
0
 70
0
 62
7
  6
CONTINUOUS
  0
LAYER
  2
_GBR
 70
0
 62
2
  6
CONTINUOUS
  0
LAYER
  2
_GBR
 70
0
 62
6
  6
CONTINUOUS
  0
LAYER
  2
_GBR
 70
0
 62
1
  6
CONTINUOUS
  0
LAYER
  2
THROUGH_DRL
 70
0
 62
7
  6
CONTINUOUS
  0
ENDTAB
  0
TABLE
  2
STYLE
 70
0
  0
ENDTAB
  0
ENDSEC
  0
SECTION
  2
BLOCKS
  0
BLOCK
  2
ROUND_2
  3
ROUND_2
 70
64
 10
0.0000
 20
0.0000
 30
0.0000
  0
CIRCLE
  8
0
 10
0.0000
 20
0.0000
 30
0.0000
 40
0.002756
  0
ENDBLK
  0
BLOCK
  2
ROUND_5
  3
ROUND_5
 70
64
 10
0.0000
 20
0.0000
 30
0.0000
  0
CIRCLE
  8
0
 10
0.0000
 20
0.0000
 30
0.0000
 40
0.015748
  0
ENDBLK
  0
BLOCK
  2
ROUND_6
  3
ROUND_6
 70
64
 10
0.0000
 20
0.0000
 30
0.0000
  0
CIRCLE
  8
0
 10
0.0000
 20
0.0000
 30
0.0000
 40
0.0118109
  0
ENDBLK
  0
BLOCK
  2
ROUND_7
  3
ROUND_7
 70
64
 10
0.0000
 20
0.0000
 30
0.0000
  0
CIRCLE
  8
0
 10
0.0000
 20
0.0000
 30
0.0000
 40
0.0324805
  0
ENDBLK
  0
BLOCK
  2
SQUARE_8
  3
SQUARE_8
 70
64
 10
0.0000
 20
0.0000
 30
0.0000
  0
SOLID
  8
0
 10
0.03937
 20
0.03937
 30
0.0000
 11
0.03937
 21
-0.03937
 31
0.0000
 12
-0.03937
 22
0.03937
 32
0.0000
 13
-0.03937
 23
-0.03937
 33
0.0000
  0
ENDBLK
  0
BLOCK
  2
ROUND_9
  3
ROUND_9
 70
64
 10
0.0000
 20
0.0000
 30
0.0000
  0
CIRCLE
  8
0
 10
0.0000
 20
0.0000
 30
0.0000
 40
0.03937
  0
ENDBLK
  0
BLOCK
  2
OBLONG_10
  3
OBLONG_10
 70
64
 10
0.0000
 20
0.0000
 30
0.0000
  0
POLYLINE
  8
0
 66
1
 10
0.0000
 20
0.0000
 30
0.0000
 40
0.07874
 41
0.07874
  0
VERTEX
  8
0
 10
0.0000
 20
0.059055
 30
0.0000
  0
VERTEX
  8
0
 10
0.0000
 20
-0.059055
 30
0.0000
  0
SEQEND
  0
POLYLINE
  8
0
 66
1
 10
0.0000
 20
0.0000
 30
0.0000
 70
1
 40
0.03937
 41
0.03937
  0
VERTEX
  8
0
 10
-0.019685
 20
0.059055
 30
0.0000
 42
1
  0
VERTEX
  8
0
 10
0.019685
 20
0.059055
 30
0.0000
 42
1
  0
SEQEND
  0
POLYLINE
  8
0
 66
1
 10
0.0000
 20
0.0000
 30
0.0000
 70
1
 40
0.03937
 41
0.03937
  0
VERTEX
  8
0
 10
-0.019685
 20
-0.059055
 30
0.0000
 42
1
  0
VERTEX
  8
0
 10
0.019685
 20
-0.059055
 30
0.0000
 42
1
  0
SEQEND
  0
ENDBLK
  0
BLOCK
  2
OBLONG_13
  3
OBLONG_13
 70
64
 10
0.0000
 20
0.0000
 30
0.0000
  0
POLYLINE
  8
0
 66
1
 10
0.0000
 20
0.0000
 30
0.0000
 40
0.07874
 41
0.07874
  0
VERTEX
  8
0
 10
0.0000
 20
0.0492125
 30
0.0000
  0
VERTEX
  8
0
 10
0.0000
 20
-0.0492125
 30
0.0000
  0
SEQEND
  0
POLYLINE
  8
0
 66
1
 10
0.0000
 20
0.0000
 30
0.0000
 70
1
 40
0.03937
 41
0.03937
  0
VERTEX
  8
0
 10
-0.019685
 20
0.0492125
 30
0.0000
 42
1
  0
VERTEX
  8
0
 10
0.019685
 20
0.0492125
 30
0.0000
 42
1
  0
SEQEND
  0
POLYLINE
  8
0
 66
1
 10
0.0000
 20
0.0000
 30
0.0000
 70
1
 40
0.03937
 41
0.03937
  0
VERTEX
  8
0
 10
-0.019685
 20
-0.0492125
 30
0.0000
 42
1
  0
VERTEX
  8
0
 10
0.019685
 20
-0.0492125
 30
0.0000
 42
1
  0
SEQEND
  0
ENDBLK
  0
BLOCK
  2
OBLONG_14
  3
OBLONG_14
 70
64
 10
0.0000
 20
0.0000
 30
0.0000
  0
POLYLINE
  8
0
 66
1
 10
0.0000
 20
0.0000
 30
0.0000
 40
0.07874
 41
0.07874
  0
VERTEX
  8
0
 10
0.0492125
 20
0.0000
 30
0.0000
  0
VERTEX
  8
0
 10
-0.0492125
 20
0.0000
 30
0.0000
  0
SEQEND
  0
POLYLINE
  8
0
 66
1
 10
0.0000
 20
0.0000
 30
0.0000
 70
1
 40
0.03937
 41
0.03937
  0
VERTEX
  8
0
 10
0.0295276
 20
0.0000
 30
0.0000
 42
1
  0
VERTEX
  8
0
 10
0.0688975
 20
0.0000
 30
0.0000
 42
1
  0
SEQEND
  0
POLYLINE
  8
0
 66
1
 10
0.0000
 20
0.0000
 30
0.0000
 70
1
 40
0.03937
 41
0.03937
  0
VERTEX
  8
0
 10
-0.0688975
 20
0.0000
 30
0.0000
 42
1
  0
VERTEX
  8
0
 10
-0.0295276
 20
0.0000
 30
0.0000
 42
1
  0
SEQEND
  0
ENDBLK
  0
BLOCK
  2
RECTANGLE_15
  3
RECTANGLE_15
 70
64
 10
0.0000
 20
0.0000
 30
0.0000
  0
SOLID
  8
0
 10
0.031496
 20
0.035433
 30
0.0000
 11
0.031496
 21
-0.035433
 31
0.0000
 12
-0.031496
 22
0.035433
 32
0.0000
 13
-0.031496
 23
-0.035433
 33
0.0000
  0
ENDBLK
  0
BLOCK
  2
RECTANGLE_16
  3
RECTANGLE_16
 70
64
 10
0.0000
 20
0.0000
 30
0.0000
  0
SOLID
  8
0
 10
0.03937
 20
0.0118109
 30
0.0000
 11
0.03937
 21
-0.0118109
 31
0.0000
 12
-0.03937
 22
0.0118109
 32
0.0000
 13
-0.03937
 23
-0.0118109
 33
0.0000
  0
ENDBLK
  0
BLOCK
  2
RECTANGLE_18
  3
RECTANGLE_18
 70
64
 10
0.0000
 20
0.0000
 30
0.0000
  0
SOLID
  8
0
 10
0.042323
 20
0.0187009
 30
0.0000
 11
0.042323
 21
-0.0187009
 31
0.0000
 12
-0.042323
 22
0.0187009
 32
0.0000
 13
-0.042323
 23
-0.0187009
 33
0.0000
  0
ENDBLK
  0
BLOCK
  2
RECTANGLE_19
  3
RECTANGLE_19
 70
64
 10
0.0000
 20
0.0000
 30
0.0000
  0
SOLID
  8
0
 10
0.042323
 20
0.0639765
 30
0.0000
 11
0.042323
 21
-0.0639765
 31
0.0000
 12
-0.042323
 22
0.0639765
 32
0.0000
 13
-0.042323
 23
-0.0639765
 33
0.0000
  0
ENDBLK
  0
BLOCK
  2
ROUND_20
  3
ROUND_20
 70
64
 10
0.0000
 20
0.0000
 30
0.0000
  0
CIRCLE
  8
0
 10
0.0000
 20
0.0000
 30
0.0000
 40
0.03937
  0
ENDBLK
  0
ENDSEC
  0
SECTION
  2
ENTITIES
  0
INSERT
  2
ROUND_20
  8
_GBR
 10
1.92231
 20
3.041995
 30
0.0000
 41
1.0000
 42
1.0000
 50
0.0000
  0
INSERT
  2
ROUND_20
  8
_GBR
 10
2.033727
 20
3.436877
 30
0.0000
 41
1.0000
 42
1.0000
 50
0.0000
  0
INSERT
  2
ROUND_20
  8
_GBR
 10
2.033727
 20
3.436877
 30
0.0000
 41
1.0000
 42
1.0000
 50
0.0000
  0
INSERT
  2
ROUND_20
  8
_GBR
 10
2.013255
 20
3.290026
 30
0.0000
 41
1.0000
 42
1.0000
 50
0.0000
  0
INSERT
  2
ROUND_20
  8
_GBR
 10
2.234514
 20
3.964436
 30
0.0000
 41
1.0000
 42
1.0000
 50
0.0000
  0
INSERT
  2
ROUND_20
  8
_GBR
 10
2.51601
 20
3.435696
 30
0.0000
 41
1.0000
 42
1.0000
 50
0.0000
  0
INSERT
  2
ROUND_20
  8
_GBR
 10
0.667039
 20
3.099627
 30
0.0000
 41
1.0000
 42
1.0000
 50
0.0000
  0
INSERT
  2
ROUND_20
  8
_GBR
 10
2.053018
 20
2.157743
 30
0.0000
 41
1.0000
 42
1.0000
 50
0.0000
  0
INSERT
  2
ROUND_20
  8
_GBR
 10
0.933727
 20
3.353412
 30
0.0000
 41
1.0000
 42
1.0000
 50
0.0000
  0
INSERT
  2
ROUND_20
  8
_GBR
 10
1.398388
 20
0.563255
 30
0.0000
 41
1.0000
 42
1.0000
 50
0.0000
  0
INSERT
  2
ROUND_20
  8
_GBR
 10
1.988845
 20
0.459318
 30
0.0000
 41
1.0000
 42
1.0000
 50
0.0000
  0
INSERT
  2
ROUND_20
  8
_GBR
 10
1.074278
 20
1.484121
 30
0.0000
 41
1.0000
 42
1.0000
 50
0.0000
  0
INSERT
  2
ROUND_20
  8
_GBR
 10
1.30853
 20
1.484121
 30
0.0000
 41
1.0000
 42
1.0000
 50
0.0000
  0
INSERT
  2
ROUND_20
  8
_GBR
 10
1.873885
 20
1.014829
 30
0.0000
 41
1.0000
 42
1.0000
 50
0.0000
  0
INSERT
  2
ROUND_20
  8
_GBR
 10
1.056168
 20
1.592782
 30
0.0000
 41
1.0000
 42
1.0000
 50
0.0000
  0
INSERT
  2
ROUND_20
  8
_GBR
 10
1.226247
 20
1.604199
 30
0.0000
 41
1.0000
 42
1.0000
 50
0.0000
  0
INSERT
  2
ROUND_20
  8
_GBR
 10
1.78294
 20
0.922703
 30
0.0000
 41
1.0000
 42
1.0000
 50
0.0000
  0
INSERT
  2
ROUND_20
  8
_GBR
 10
0.459318
 20
1.976247
 30
0.0000
 41
1.0000
 42
1.0000
 50
0.0000
  0
INSERT
  2
ROUND_20
  8
_GBR
 10
1.061286
 20
1.385696
 30
0.0000
 41
1.0000
 42
1.0000
 50
0.0000
  0
INSERT
  2
ROUND_20
  8
_GBR
 10
1.399475
 20
1.371129
 30
0.0000
 41
1.0000
 42
1.0000
 50
0.0000
  0
INSERT
  2
ROUND_20
  8
_GBR
 10
1.606168
 20
1.103806
 30
0.0000
 41
1.0000
 42
1.0000
 50
0.0000
  0
INSERT
  2
ROUND_20
  8
_GBR
 10
2.51916
 20
2.263255
 30
0.0000
 41
1.0000
 42
1.0000
 50
0.0000
  0
INSERT
  2
ROUND_20
  8
_GBR
 10
1.730971
 20
2.277822
 30
0.0000
 41
1.0000
 42
1.0000
 50
0.0000
  0
INSERT
  2
ROUND_20
  8
_GBR
 10
1.274278
 20
0.630184
 30
0.0000
 41
1.0000
 42
1.0000
 50
0.0000
  0
INSERT
  2
ROUND_20
  8
_GBR
 10
1.852625
 20
2.082152
 30
0.0000
 41
1.0000
 42
1.0000
 50
0.0000
  0
INSERT
  2
ROUND_20
  8
_GBR
 10
1.103058
 20
0.934121
 30
0.0000
 41
1.0000
 42
1.0000
 50
0.0000
  0
INSERT
  2
ROUND_20
  8
_GBR
 10
1.14357
 20
1.16168
 30
0.0000
 41
1.0000
 42
1.0000
 50
0.0000
  0
INSERT
  2
ROUND_20
  8
_GBR
 10
0.916798
 20
1.030184
 30
0.0000
 41
1.0000
 42
1.0000
 50
0.0000
  0
INSERT
  2
ROUND_20
  8
_GBR
 10
0.735696
 20
3.274278
 30
0.0000
 41
1.0000
 42
1.0000
 50
0.0000
  0
INSERT
  2
ROUND_20
  8
_GBR
 10
0.735696
 20
2.758136
 30
0.0000
 41
1.0000
 42
1.0000
 50
0.0000
  0
INSERT
  2
ROUND_7
  8
_GBR
 10
2.157743
 20
3.435696
 30
0.0000
 41
1.0000
 42
1.0000
 50
0.0000
  0
INSERT
  2
ROUND_7
  8
_GBR
 10
2.357743
 20
3.435696
 30
0.0000
 41
1.0000
 42
1.0000
 50
0.0000
  0
INSERT
  2
ROUND_7
  8
_GBR
 10
1.218766
 20
3.614436
 30
0.0000
 41
1.0000
 42
1.0000
 50
0.0000
  0
INSERT
  2
ROUND_7
  8
_GBR
 10
1.218766
 20
3.814436
 30
0.0000
 41
1.0000
 42
1.0000
 50
0.0000
  0
INSERT
  2
SQUARE_8
  8
_GBR
 10
0.709357
 20
0.745144
 30
0.0000
 41
1.0000
 42
1.0000
 50
0.0000
  0
INSERT
  2
ROUND_9
  8
_GBR
 10
1.299963
 20
0.745144
 30
0.0000
 41
1.0000
 42
1.0000
 50
0.0000
  0
INSERT
  2
ROUND_9
  8
_GBR
 10
0.807782
 20
0.745144
 30
0.0000
 41
1.0000
 42
1.0000
 50
0.0000
  0
INSERT
  2
ROUND_9
  8
_GBR
 10
0.906207
 20
0.745144
 30
0.0000
 41
1.0000
 42
1.0000
 50
0.0000
  0
INSERT
  2
ROUND_9
  8
_GBR
 10
1.004633
 20
0.745144
 30
0.0000
 41
1.0000
 42
1.0000
 50
0.0000
  0
INSERT
  2
ROUND_9
  8
_GBR
 10
1.103058
 20
0.745144
 30
0.0000
 41
1.0000
 42
1.0000
 50
0.0000
  0
INSERT
  2
ROUND_9
  8
_GBR
 10
1.201483
 20
0.745144
 30
0.0000
 41
1.0000
 42
1.0000
 50
0.0000
  0
INSERT
  2
ROUND_9
  8
_GBR
 10
1.398388
 20
0.745144
 30
0.0000
 41
1.0000
 42
1.0000
 50
0.0000
  0
INSERT
  2
ROUND_9
  8
_GBR
 10
1.496814
 20
0.745144
 30
0.0000
 41
1.0000
 42
1.0000
 50
0.0000
  0
INSERT
  2
ROUND_9
  8
_GBR
 10
1.595239
 20
0.745144
 30
0.0000
 41
1.0000
 42
1.0000
 50
0.0000
  0
INSERT
  2
ROUND_9
  8
_GBR
 10
1.693664
 20
0.745144
 30
0.0000
 41
1.0000
 42
1.0000
 50
0.0000
  0
INSERT
  2
ROUND_9
  8
_GBR
 10
1.792089
 20
0.745144
 30
0.0000
 41
1.0000
 42
1.0000
 50
0.0000
  0
INSERT
  2
ROUND_9
  8
_GBR
 10
1.89042
 20
0.745144
 30
0.0000
 41
1.0000
 42
1.0000
 50
0.0000
  0
INSERT
  2
ROUND_9
  8
_GBR
 10
1.988845
 20
0.745144
 30
0.0000
 41
1.0000
 42
1.0000
 50
0.0000
  0
INSERT
  2
SQUARE_8
  8
_GBR
 10
0.834121
 20
3.56168
 30
0.0000
 41
1.0000
 42
1.0000
 50
0.0000
  0
INSERT
  2
ROUND_9
  8
_GBR
 10
0.735696
 20
3.56168
 30
0.0000
 41
1.0000
 42
1.0000
 50
0.0000
  0
INSERT
  2
ROUND_9
  8
_GBR
 10
0.63727
 20
3.56168
 30
0.0000
 41
1.0000
 42
1.0000
 50
0.0000
  0
INSERT
  2
OBLONG_10
  8
_GBR
 10
2.130577
 20
3.822703
 30
0.0000
 41
1.0000
 42
1.0000
 50
0.0000
  0
INSERT
  2
OBLONG_13
  8
_GBR
 10
2.366798
 20
3.822703
 30
0.0000
 41
1.0000
 42
1.0000
 50
0.0000
  0
INSERT
  2
OBLONG_14
  8
_GBR
 10
2.248688
 20
3.62979
 30
0.0000
 41
1.0000
 42
1.0000
 50
0.0000
  0
INSERT
  2
ROUND_9
  8
_GBR
 10
0.937664
 20
1.28727
 30
0.0000
 41
1.0000
 42
1.0000
 50
0.0000
  0
INSERT
  2
ROUND_9
  8
_GBR
 10
0.937664
 20
1.385696
 30
0.0000
 41
1.0000
 42
1.0000
 50
0.0000
  0
INSERT
  2
ROUND_9
  8
_GBR
 10
0.937664
 20
1.484121
 30
0.0000
 41
1.0000
 42
1.0000
 50
0.0000
  0
INSERT
  2
ROUND_9
  8
_GBR
 10
0.937664
 20
1.582546
 30
0.0000
 41
1.0000
 42
1.0000
 50
0.0000
  0
INSERT
  2
ROUND_9
  8
_GBR
 10
0.937664
 20
1.680971
 30
0.0000
 41
1.0000
 42
1.0000
 50
0.0000
  0
INSERT
  2
ROUND_9
  8
_GBR
 10
0.937664
 20
1.779396
 30
0.0000
 41
1.0000
 42
1.0000
 50
0.0000
  0
INSERT
  2
ROUND_9
  8
_GBR
 10
0.937664
 20
1.877822
 30
0.0000
 41
1.0000
 42
1.0000
 50
0.0000
  0
INSERT
  2
ROUND_9
  8
_GBR
 10
0.937664
 20
1.976247
 30
0.0000
 41
1.0000
 42
1.0000
 50
0.0000
  0
INSERT
  2
ROUND_9
  8
_GBR
 10
0.937664
 20
2.074672
 30
0.0000
 41
1.0000
 42
1.0000
 50
0.0000
  0
INSERT
  2
ROUND_9
  8
_GBR
 10
0.937664
 20
2.173097
 30
0.0000
 41
1.0000
 42
1.0000
 50
0.0000
  0
INSERT
  2
ROUND_9
  8
_GBR
 10
0.937664
 20
2.271522
 30
0.0000
 41
1.0000
 42
1.0000
 50
0.0000
  0
INSERT
  2
ROUND_9
  8
_GBR
 10
0.937664
 20
2.369948
 30
0.0000
 41
1.0000
 42
1.0000
 50
0.0000
  0
INSERT
  2
ROUND_9
  8
_GBR
 10
0.937664
 20
2.468373
 30
0.0000
 41
1.0000
 42
1.0000
 50
0.0000
  0
INSERT
  2
ROUND_9
  8
_GBR
 10
0.937664
 20
2.566798
 30
0.0000
 41
1.0000
 42
1.0000
 50
0.0000
  0
INSERT
  2
ROUND_9
  8
_GBR
 10
0.937664
 20
2.665223
 30
0.0000
 41
1.0000
 42
1.0000
 50
0.0000
  0
INSERT
  2
ROUND_9
  8
_GBR
 10
0.937664
 20
2.763648
 30
0.0000
 41
1.0000
 42
1.0000
 50
0.0000
  0
INSERT
  2
ROUND_9
  8
_GBR
 10
0.937664
 20
2.862073
 30
0.0000
 41
1.0000
 42
1.0000
 50
0.0000
  0
INSERT
  2
ROUND_9
  8
_GBR
 10
0.937664
 20
2.960499
 30
0.0000
 41
1.0000
 42
1.0000
 50
0.0000
  0
INSERT
  2
ROUND_9
  8
_GBR
 10
0.937664
 20
3.058924
 30
0.0000
 41
1.0000
 42
1.0000
 50
0.0000
  0
INSERT
  2
ROUND_9
  8
_GBR
 10
0.937664
 20
3.157349
 30
0.0000
 41
1.0000
 42
1.0000
 50
0.0000
  0
INSERT
  2
ROUND_9
  8
_GBR
 10
1.5479
 20
1.385696
 30
0.0000
 41
1.0000
 42
1.0000
 50
0.0000
  0
INSERT
  2
ROUND_9
  8
_GBR
 10
1.5479
 20
1.484121
 30
0.0000
 41
1.0000
 42
1.0000
 50
0.0000
  0
INSERT
  2
ROUND_9
  8
_GBR
 10
1.5479
 20
1.582546
 30
0.0000
 41
1.0000
 42
1.0000
 50
0.0000
  0
INSERT
  2
ROUND_9
  8
_GBR
 10
1.5479
 20
1.680971
 30
0.0000
 41
1.0000
 42
1.0000
 50
0.0000
  0
INSERT
  2
ROUND_9
  8
_GBR
 10
1.5479
 20
1.779396
 30
0.0000
 41
1.0000
 42
1.0000
 50
0.0000
  0
INSERT
  2
ROUND_9
  8
_GBR
 10
1.5479
 20
1.877822
 30
0.0000
 41
1.0000
 42
1.0000
 50
0.0000
  0
INSERT
  2
ROUND_9
  8
_GBR
 10
1.5479
 20
1.976247
 30
0.0000
 41
1.0000
 42
1.0000
 50
0.0000
  0
INSERT
  2
ROUND_9
  8
_GBR
 10
1.5479
 20
2.074672
 30
0.0000
 41
1.0000
 42
1.0000
 50
0.0000
  0
INSERT
  2
ROUND_9
  8
_GBR
 10
1.5479
 20
2.173097
 30
0.0000
 41
1.0000
 42
1.0000
 50
0.0000
  0
INSERT
  2
ROUND_9
  8
_GBR
 10
1.5479
 20
2.271522
 30
0.0000
 41
1.0000
 42
1.0000
 50
0.0000
  0
INSERT
  2
ROUND_9
  8
_GBR
 10
1.5479
 20
2.369948
 30
0.0000
 41
1.0000
 42
1.0000
 50
0.0000
  0
INSERT
  2
ROUND_9
  8
_GBR
 10
1.5479
 20
2.468373
 30
0.0000
 41
1.0000
 42
1.0000
 50
0.0000
  0
INSERT
  2
ROUND_9
  8
_GBR
 10
1.5479
 20
2.566798
 30
0.0000
 41
1.0000
 42
1.0000
 50
0.0000
  0
INSERT
  2
ROUND_9
  8
_GBR
 10
1.5479
 20
2.665223
 30
0.0000
 41
1.0000
 42
1.0000
 50
0.0000
  0
INSERT
  2
ROUND_9
  8
_GBR
 10
1.5479
 20
2.763648
 30
0.0000
 41
1.0000
 42
1.0000
 50
0.0000
  0
INSERT
  2
ROUND_9
  8
_GBR
 10
1.5479
 20
2.862073
 30
0.0000
 41
1.0000
 42
1.0000
 50
0.0000
  0
INSERT
  2
ROUND_9
  8
_GBR
 10
1.5479
 20
2.960499
 30
0.0000
 41
1.0000
 42
1.0000
 50
0.0000
  0
INSERT
  2
ROUND_9
  8
_GBR
 10
1.5479
 20
3.058924
 30
0.0000
 41
1.0000
 42
1.0000
 50
0.0000
  0
INSERT
  2
ROUND_9
  8
_GBR
 10
1.5479
 20
3.157349
 30
0.0000
 41
1.0000
 42
1.0000
 50
0.0000
  0
INSERT
  2
ROUND_9
  8
_GBR
 10
1.5479
 20
1.28727
 30
0.0000
 41
1.0000
 42
1.0000
 50
0.0000
  0
POLYLINE
  8
_GBR
 66
1
 10
0.0000
 20
0.0000
 30
0.0000
 40
0.031496
 41
0.031496
  0
VERTEX
  8
_GBR
 10
1.92231
 20
3.041995
 30
0.0000
  0
VERTEX
  8
_GBR
 10
1.92231
 20
3.436877
 30
0.0000
  0
VERTEX
  8
_GBR
 10
2.033727
 20
3.436877
 30
0.0000
  0
SEQEND
  0
POLYLINE
  8
_GBR
 66
1
 10
0.0000
 20
0.0000
 30
0.0000
 40
0.031496
 41
0.031496
  0
VERTEX
  8
_GBR
 10
2.013255
 20
3.290026
 30
0.0000
  0
VERTEX
  8
_GBR
 10
2.460892
 20
3.290026
 30
0.0000
  0
VERTEX
  8
_GBR
 10
2.51601
 20
3.345144
 30
0.0000
  0
VERTEX
  8
_GBR
 10
2.51601
 20
3.435696
 30
0.0000
  0
VERTEX
  8
_GBR
 10
2.51601
 20
3.918373
 30
0.0000
  0
VERTEX
  8
_GBR
 10
2.469948
 20
3.964436
 30
0.0000
  0
VERTEX
  8
_GBR
 10
2.234514
 20
3.964436
 30
0.0000
  0
SEQEND
  0
POLYLINE
  8
_GBR
 66
1
 10
0.0000
 20
0.0000
 30
0.0000
 40
0.031496
 41
0.031496
  0
VERTEX
  8
_GBR
 10
0.807782
 20
0.745144
 30
0.0000
  0
VERTEX
  8
_GBR
 10
0.807782
 20
0.650302
 30
0.0000
  0
VERTEX
  8
_GBR
 10
0.778215
 20
0.620735
 30
0.0000
  0
VERTEX
  8
_GBR
 10
0.588451
 20
0.620735
 30
0.0000
  0
VERTEX
  8
_GBR
 10
0.538451
 20
0.670735
 30
0.0000
  0
VERTEX
  8
_GBR
 10
0.538451
 20
2.971039
 30
0.0000
  0
VERTEX
  8
_GBR
 10
0.667039
 20
3.099627
 30
0.0000
  0
SEQEND
  0
POLYLINE
  8
_GBR
 66
1
 10
0.0000
 20
0.0000
 30
0.0000
 40
0.031496
 41
0.031496
  0
VERTEX
  8
_GBR
 10
2.053018
 20
2.157743
 30
0.0000
  0
VERTEX
  8
_GBR
 10
2.551837
 20
2.157743
 30
0.0000
  0
VERTEX
  8
_GBR
 10
2.609711
 20
2.215617
 30
0.0000
  0
VERTEX
  8
_GBR
 10
2.609711
 20
3.403806
 30
0.0000
  0
VERTEX
  8
_GBR
 10
2.577822
 20
3.435696
 30
0.0000
  0
VERTEX
  8
_GBR
 10
2.51601
 20
3.435696
 30
0.0000
  0
SEQEND
  0
POLYLINE
  8
_GBR
 66
1
 10
0.0000
 20
0.0000
 30
0.0000
 40
0.031496
 41
0.031496
  0
VERTEX
  8
_GBR
 10
0.709357
 20
0.745144
 30
0.0000
  0
VERTEX
  8
_GBR
 10
0.709357
 20
1.893215
 30
0.0000
  0
VERTEX
  8
_GBR
 10
0.825459
 20
2.009318
 30
0.0000
  0
VERTEX
  8
_GBR
 10
0.825459
 20
3.308924
 30
0.0000
  0
VERTEX
  8
_GBR
 10
0.869948
 20
3.353412
 30
0.0000
  0
VERTEX
  8
_GBR
 10
0.933727
 20
3.353412
 30
0.0000
  0
SEQEND
  0
POLYLINE
  8
_GBR
 66
1
 10
0.0000
 20
0.0000
 30
0.0000
 40
0.031496
 41
0.031496
  0
VERTEX
  8
_GBR
 10
1.398388
 20
0.745144
 30
0.0000
  0
VERTEX
  8
_GBR
 10
1.398388
 20
0.563255
 30
0.0000
  0
SEQEND
  0
POLYLINE
  8
_GBR
 66
1
 10
0.0000
 20
0.0000
 30
0.0000
 40
0.031496
 41
0.031496
  0
VERTEX
  8
_GBR
 10
1.988845
 20
0.745144
 30
0.0000
  0
VERTEX
  8
_GBR
 10
1.988845
 20
0.459318
 30
0.0000
  0
SEQEND
  0
POLYLINE
  8
_GBR
 66
1
 10
0.0000
 20
0.0000
 30
0.0000
 40
0.031496
 41
0.031496
  0
VERTEX
  8
_GBR
 10
1.074278
 20
1.484121
 30
0.0000
  0
VERTEX
  8
_GBR
 10
1.30853
 20
1.484121
 30
0.0000
  0
SEQEND
  0
POLYLINE
  8
_GBR
 66
1
 10
0.0000
 20
0.0000
 30
0.0000
 40
0.031496
 41
0.031496
  0
VERTEX
  8
_GBR
 10
1.873885
 20
1.014829
 30
0.0000
  0
VERTEX
  8
_GBR
 10
1.873885
 20
0.76168
 30
0.0000
  0
VERTEX
  8
_GBR
 10
1.89042
 20
0.745144
 30
0.0000
  0
SEQEND
  0
POLYLINE
  8
_GBR
 66
1
 10
0.0000
 20
0.0000
 30
0.0000
 40
0.031496
 41
0.031496
  0
VERTEX
  8
_GBR
 10
1.056168
 20
1.592782
 30
0.0000
  0
VERTEX
  8
_GBR
 10
1.214829
 20
1.592782
 30
0.0000
  0
VERTEX
  8
_GBR
 10
1.226247
 20
1.604199
 30
0.0000
  0
SEQEND
  0
POLYLINE
  8
_GBR
 66
1
 10
0.0000
 20
0.0000
 30
0.0000
 40
0.031496
 41
0.031496
  0
VERTEX
  8
_GBR
 10
1.78294
 20
0.922703
 30
0.0000
  0
VERTEX
  8
_GBR
 10
1.78294
 20
0.754294
 30
0.0000
  0
VERTEX
  8
_GBR
 10
1.792089
 20
0.745144
 30
0.0000
  0
SEQEND
  0
POLYLINE
  8
_GBR
 66
1
 10
0.0000
 20
0.0000
 30
0.0000
 40
0.031496
 41
0.031496
  0
VERTEX
  8
_GBR
 10
1.693664
 20
0.745144
 30
0.0000
  0
VERTEX
  8
_GBR
 10
1.693664
 20
0.544451
 30
0.0000
  0
VERTEX
  8
_GBR
 10
1.649081
 20
0.499869
 30
0.0000
  0
VERTEX
  8
_GBR
 10
0.520735
 20
0.499869
 30
0.0000
  0
VERTEX
  8
_GBR
 10
0.459318
 20
0.561286
 30
0.0000
  0
VERTEX
  8
_GBR
 10
0.459318
 20
1.976247
 30
0.0000
  0
SEQEND
  0
POLYLINE
  8
_GBR
 66
1
 10
0.0000
 20
0.0000
 30
0.0000
 40
0.031496
 41
0.031496
  0
VERTEX
  8
_GBR
 10
1.061286
 20
1.385696
 30
0.0000
  0
VERTEX
  8
_GBR
 10
1.384908
 20
1.385696
 30
0.0000
  0
VERTEX
  8
_GBR
 10
1.399475
 20
1.371129
 30
0.0000
  0
SEQEND
  0
POLYLINE
  8
_GBR
 66
1
 10
0.0000
 20
0.0000
 30
0.0000
 40
0.031496
 41
0.031496
  0
VERTEX
  8
_GBR
 10
1.606168
 20
1.103806
 30
0.0000
  0
VERTEX
  8
_GBR
 10
1.606168
 20
0.756073
 30
0.0000
  0
VERTEX
  8
_GBR
 10
1.595239
 20
0.745144
 30
0.0000
  0
SEQEND
  0
POLYLINE
  8
_GBR
 66
1
 10
0.0000
 20
0.0000
 30
0.0000
 40
0.031496
 41
0.031496
  0
VERTEX
  8
_GBR
 10
2.51916
 20
2.263255
 30
0.0000
  0
VERTEX
  8
_GBR
 10
1.745538
 20
2.263255
 30
0.0000
  0
VERTEX
  8
_GBR
 10
1.730971
 20
2.277822
 30
0.0000
  0
SEQEND
  0
POLYLINE
  8
_GBR
 66
1
 10
0.0000
 20
0.0000
 30
0.0000
 40
0.031496
 41
0.031496
  0
VERTEX
  8
_GBR
 10
1.299963
 20
0.745144
 30
0.0000
  0
VERTEX
  8
_GBR
 10
1.299963
 20
0.655869
 30
0.0000
  0
VERTEX
  8
_GBR
 10
1.274278
 20
0.630184
 30
0.0000
  0
SEQEND
  0
POLYLINE
  8
_GBR
 66
1
 10
0.0000
 20
0.0000
 30
0.0000
 40
0.031496
 41
0.031496
  0
VERTEX
  8
_GBR
 10
1.201483
 20
0.745144
 30
0.0000
  0
VERTEX
  8
_GBR
 10
1.201483
 20
0.955814
 30
0.0000
  0
VERTEX
  8
_GBR
 10
1.432546
 20
1.186877
 30
0.0000
  0
VERTEX
  8
_GBR
 10
1.681759
 20
1.186877
 30
0.0000
  0
VERTEX
  8
_GBR
 10
1.852625
 20
1.357743
 30
0.0000
  0
VERTEX
  8
_GBR
 10
1.852625
 20
2.082152
 30
0.0000
  0
SEQEND
  0
POLYLINE
  8
_GBR
 66
1
 10
0.0000
 20
0.0000
 30
0.0000
 40
0.031496
 41
0.031496
  0
VERTEX
  8
_GBR
 10
1.103058
 20
0.745144
 30
0.0000
  0
VERTEX
  8
_GBR
 10
1.103058
 20
0.934121
 30
0.0000
  0
SEQEND
  0
POLYLINE
  8
_GBR
 66
1
 10
0.0000
 20
0.0000
 30
0.0000
 40
0.031496
 41
0.031496
  0
VERTEX
  8
_GBR
 10
1.004633
 20
0.745144
 30
0.0000
  0
VERTEX
  8
_GBR
 10
1.004633
 20
1.022743
 30
0.0000
  0
VERTEX
  8
_GBR
 10
1.14357
 20
1.16168
 30
0.0000
  0
SEQEND
  0
POLYLINE
  8
_GBR
 66
1
 10
0.0000
 20
0.0000
 30
0.0000
 40
0.031496
 41
0.031496
  0
VERTEX
  8
_GBR
 10
0.906207
 20
0.745144
 30
0.0000
  0
VERTEX
  8
_GBR
 10
0.916798
 20
0.745144
 30
0.0000
  0
VERTEX
  8
_GBR
 10
0.916798
 20
1.030184
 30
0.0000
  0
SEQEND
  0
POLYLINE
  8
_GBR
 66
1
 10
0.0000
 20
0.0000
 30
0.0000
 40
0.031496
 41
0.031496
  0
VERTEX
  8
_GBR
 10
0.735696
 20
3.274278
 30
0.0000
  0
VERTEX
  8
_GBR
 10
0.735696
 20
2.758136
 30
0.0000
  0
SEQEND
  0
ENDSEC
  0
EOF
