  0
SECTION
  2
HEADER
  9
$EXTMIN
 10
0.390945
 20
0.390945
 30
0.0000
  9
$EXTMAX
 10
2.695407
 20
4.046588
 30
0.0000
  0
ENDSEC
  0
SECTION
  2
TABLES
  0
TABLE
  2
LTYPE
 70
3
  0
LTYPE
  2
BYBLOCK
 70
0
  3

 72
65
 73
0
 40
0.0000
  0
LTYPE
  2
BYLAYER
 70
0
  3

 72
65
 73
0
 40
0.0000
  0
LTYPE
  2
CONTINUOUS
 70
0
  3
Solid line
 72
65
 73
0
 40
0.0000
  0
ENDTAB
  0
TABLE
  2
LAYER
 70
4
  0
LAYER
  2
0
 70
0
 62
7
  6
CONTINUOUS
  0
LAYER
  2
_GBR
 70
0
 62
2
  6
CONTINUOUS
  0
LAYER
  2
_GBR
 70
0
 62
6
  6
CONTINUOUS
  0
LAYER
  2
_GBR
 70
0
 62
1
  6
CONTINUOUS
  0
LAYER
  2
THROUGH_DRL
 70
0
 62
7
  6
CONTINUOUS
  0
ENDTAB
  0
TABLE
  2
STYLE
 70
0
  0
ENDTAB
  0
ENDSEC
  0
SECTION
  2
BLOCKS
  0
BLOCK
  2
ROUND_2
  3
ROUND_2
 70
64
 10
0.0000
 20
0.0000
 30
0.0000
  0
CIRCLE
  8
0
 10
0.0000
 20
0.0000
 30
0.0000
 40
0.002756
  0
ENDBLK
  0
BLOCK
  2
ROUND_5
  3
ROUND_5
 70
64
 10
0.0000
 20
0.0000
 30
0.0000
  0
CIRCLE
  8
0
 10
0.0000
 20
0.0000
 30
0.0000
 40
0.015748
  0
ENDBLK
  0
BLOCK
  2
ROUND_6
  3
ROUND_6
 70
64
 10
0.0000
 20
0.0000
 30
0.0000
  0
CIRCLE
  8
0
 10
0.0000
 20
0.0000
 30
0.0000
 40
0.0118109
  0
ENDBLK
  0
BLOCK
  2
ROUND_7
  3
ROUND_7
 70
64
 10
0.0000
 20
0.0000
 30
0.0000
  0
CIRCLE
  8
0
 10
0.0000
 20
0.0000
 30
0.0000
 40
0.0324805
  0
ENDBLK
  0
BLOCK
  2
SQUARE_8
  3
SQUARE_8
 70
64
 10
0.0000
 20
0.0000
 30
0.0000
  0
SOLID
  8
0
 10
0.03937
 20
0.03937
 30
0.0000
 11
0.03937
 21
-0.03937
 31
0.0000
 12
-0.03937
 22
0.03937
 32
0.0000
 13
-0.03937
 23
-0.03937
 33
0.0000
  0
ENDBLK
  0
BLOCK
  2
ROUND_9
  3
ROUND_9
 70
64
 10
0.0000
 20
0.0000
 30
0.0000
  0
CIRCLE
  8
0
 10
0.0000
 20
0.0000
 30
0.0000
 40
0.03937
  0
ENDBLK
  0
BLOCK
  2
OBLONG_10
  3
OBLONG_10
 70
64
 10
0.0000
 20
0.0000
 30
0.0000
  0
POLYLINE
  8
0
 66
1
 10
0.0000
 20
0.0000
 30
0.0000
 40
0.07874
 41
0.07874
  0
VERTEX
  8
0
 10
0.0000
 20
0.059055
 30
0.0000
  0
VERTEX
  8
0
 10
0.0000
 20
-0.059055
 30
0.0000
  0
SEQEND
  0
POLYLINE
  8
0
 66
1
 10
0.0000
 20
0.0000
 30
0.0000
 70
1
 40
0.03937
 41
0.03937
  0
VERTEX
  8
0
 10
-0.019685
 20
0.059055
 30
0.0000
 42
1
  0
VERTEX
  8
0
 10
0.019685
 20
0.059055
 30
0.0000
 42
1
  0
SEQEND
  0
POLYLINE
  8
0
 66
1
 10
0.0000
 20
0.0000
 30
0.0000
 70
1
 40
0.03937
 41
0.03937
  0
VERTEX
  8
0
 10
-0.019685
 20
-0.059055
 30
0.0000
 42
1
  0
VERTEX
  8
0
 10
0.019685
 20
-0.059055
 30
0.0000
 42
1
  0
SEQEND
  0
ENDBLK
  0
BLOCK
  2
OBLONG_13
  3
OBLONG_13
 70
64
 10
0.0000
 20
0.0000
 30
0.0000
  0
POLYLINE
  8
0
 66
1
 10
0.0000
 20
0.0000
 30
0.0000
 40
0.07874
 41
0.07874
  0
VERTEX
  8
0
 10
0.0000
 20
0.0492125
 30
0.0000
  0
VERTEX
  8
0
 10
0.0000
 20
-0.0492125
 30
0.0000
  0
SEQEND
  0
POLYLINE
  8
0
 66
1
 10
0.0000
 20
0.0000
 30
0.0000
 70
1
 40
0.03937
 41
0.03937
  0
VERTEX
  8
0
 10
-0.019685
 20
0.0492125
 30
0.0000
 42
1
  0
VERTEX
  8
0
 10
0.019685
 20
0.0492125
 30
0.0000
 42
1
  0
SEQEND
  0
POLYLINE
  8
0
 66
1
 10
0.0000
 20
0.0000
 30
0.0000
 70
1
 40
0.03937
 41
0.03937
  0
VERTEX
  8
0
 10
-0.019685
 20
-0.0492125
 30
0.0000
 42
1
  0
VERTEX
  8
0
 10
0.019685
 20
-0.0492125
 30
0.0000
 42
1
  0
SEQEND
  0
ENDBLK
  0
BLOCK
  2
OBLONG_14
  3
OBLONG_14
 70
64
 10
0.0000
 20
0.0000
 30
0.0000
  0
POLYLINE
  8
0
 66
1
 10
0.0000
 20
0.0000
 30
0.0000
 40
0.07874
 41
0.07874
  0
VERTEX
  8
0
 10
0.0492125
 20
0.0000
 30
0.0000
  0
VERTEX
  8
0
 10
-0.0492125
 20
0.0000
 30
0.0000
  0
SEQEND
  0
POLYLINE
  8
0
 66
1
 10
0.0000
 20
0.0000
 30
0.0000
 70
1
 40
0.03937
 41
0.03937
  0
VERTEX
  8
0
 10
0.0295276
 20
0.0000
 30
0.0000
 42
1
  0
VERTEX
  8
0
 10
0.0688975
 20
0.0000
 30
0.0000
 42
1
  0
SEQEND
  0
POLYLINE
  8
0
 66
1
 10
0.0000
 20
0.0000
 30
0.0000
 70
1
 40
0.03937
 41
0.03937
  0
VERTEX
  8
0
 10
-0.0688975
 20
0.0000
 30
0.0000
 42
1
  0
VERTEX
  8
0
 10
-0.0295276
 20
0.0000
 30
0.0000
 42
1
  0
SEQEND
  0
ENDBLK
  0
BLOCK
  2
RECTANGLE_15
  3
RECTANGLE_15
 70
64
 10
0.0000
 20
0.0000
 30
0.0000
  0
SOLID
  8
0
 10
0.031496
 20
0.035433
 30
0.0000
 11
0.031496
 21
-0.035433
 31
0.0000
 12
-0.031496
 22
0.035433
 32
0.0000
 13
-0.031496
 23
-0.035433
 33
0.0000
  0
ENDBLK
  0
BLOCK
  2
RECTANGLE_16
  3
RECTANGLE_16
 70
64
 10
0.0000
 20
0.0000
 30
0.0000
  0
SOLID
  8
0
 10
0.03937
 20
0.0118109
 30
0.0000
 11
0.03937
 21
-0.0118109
 31
0.0000
 12
-0.03937
 22
0.0118109
 32
0.0000
 13
-0.03937
 23
-0.0118109
 33
0.0000
  0
ENDBLK
  0
BLOCK
  2
RECTANGLE_18
  3
RECTANGLE_18
 70
64
 10
0.0000
 20
0.0000
 30
0.0000
  0
SOLID
  8
0
 10
0.042323
 20
0.0187009
 30
0.0000
 11
0.042323
 21
-0.0187009
 31
0.0000
 12
-0.042323
 22
0.0187009
 32
0.0000
 13
-0.042323
 23
-0.0187009
 33
0.0000
  0
ENDBLK
  0
BLOCK
  2
RECTANGLE_19
  3
RECTANGLE_19
 70
64
 10
0.0000
 20
0.0000
 30
0.0000
  0
SOLID
  8
0
 10
0.042323
 20
0.0639765
 30
0.0000
 11
0.042323
 21
-0.0639765
 31
0.0000
 12
-0.042323
 22
0.0639765
 32
0.0000
 13
-0.042323
 23
-0.0639765
 33
0.0000
  0
ENDBLK
  0
BLOCK
  2
ROUND_20
  3
ROUND_20
 70
64
 10
0.0000
 20
0.0000
 30
0.0000
  0
CIRCLE
  8
0
 10
0.0000
 20
0.0000
 30
0.0000
 40
0.03937
  0
ENDBLK
  0
ENDSEC
  0
SECTION
  2
ENTITIES
  0
INSERT
  2
ROUND_20
  8
_GBR
 10
1.92231
 20
3.041995
 30
0.0000
 41
1.0000
 42
1.0000
 50
0.0000
  0
INSERT
  2
ROUND_20
  8
_GBR
 10
2.033727
 20
3.436877
 30
0.0000
 41
1.0000
 42
1.0000
 50
0.0000
  0
INSERT
  2
ROUND_20
  8
_GBR
 10
2.033727
 20
3.436877
 30
0.0000
 41
1.0000
 42
1.0000
 50
0.0000
  0
INSERT
  2
ROUND_20
  8
_GBR
 10
2.013255
 20
3.290026
 30
0.0000
 41
1.0000
 42
1.0000
 50
0.0000
  0
INSERT
  2
ROUND_20
  8
_GBR
 10
2.234514
 20
3.964436
 30
0.0000
 41
1.0000
 42
1.0000
 50
0.0000
  0
INSERT
  2
ROUND_20
  8
_GBR
 10
2.51601
 20
3.435696
 30
0.0000
 41
1.0000
 42
1.0000
 50
0.0000
  0
INSERT
  2
ROUND_20
  8
_GBR
 10
0.667039
 20
3.099627
 30
0.0000
 41
1.0000
 42
1.0000
 50
0.0000
  0
INSERT
  2
ROUND_20
  8
_GBR
 10
2.053018
 20
2.157743
 30
0.0000
 41
1.0000
 42
1.0000
 50
0.0000
  0
INSERT
  2
ROUND_20
  8
_GBR
 10
0.933727
 20
3.353412
 30
0.0000
 41
1.0000
 42
1.0000
 50
0.0000
  0
INSERT
  2
ROUND_20
  8
_GBR
 10
1.398388
 20
0.563255
 30
0.0000
 41
1.0000
 42
1.0000
 50
0.0000
  0
INSERT
  2
ROUND_20
  8
_GBR
 10
1.988845
 20
0.459318
 30
0.0000
 41
1.0000
 42
1.0000
 50
0.0000
  0
INSERT
  2
ROUND_20
  8
_GBR
 10
1.074278
 20
1.484121
 30
0.0000
 41
1.0000
 42
1.0000
 50
0.0000
  0
INSERT
  2
ROUND_20
  8
_GBR
 10
1.30853
 20
1.484121
 30
0.0000
 41
1.0000
 42
1.0000
 50
0.0000
  0
INSERT
  2
ROUND_20
  8
_GBR
 10
1.873885
 20
1.014829
 30
0.0000
 41
1.0000
 42
1.0000
 50
0.0000
  0
INSERT
  2
ROUND_20
  8
_GBR
 10
1.056168
 20
1.592782
 30
0.0000
 41
1.0000
 42
1.0000
 50
0.0000
  0
INSERT
  2
ROUND_20
  8
_GBR
 10
1.226247
 20
1.604199
 30
0.0000
 41
1.0000
 42
1.0000
 50
0.0000
  0
INSERT
  2
ROUND_20
  8
_GBR
 10
1.78294
 20
0.922703
 30
0.0000
 41
1.0000
 42
1.0000
 50
0.0000
  0
INSERT
  2
ROUND_20
  8
_GBR
 10
0.459318
 20
1.976247
 30
0.0000
 41
1.0000
 42
1.0000
 50
0.0000
  0
INSERT
  2
ROUND_20
  8
_GBR
 10
1.061286
 20
1.385696
 30
0.0000
 41
1.0000
 42
1.0000
 50
0.0000
  0
INSERT
  2
ROUND_20
  8
_GBR
 10
1.399475
 20
1.371129
 30
0.0000
 41
1.0000
 42
1.0000
 50
0.0000
  0
INSERT
  2
ROUND_20
  8
_GBR
 10
1.606168
 20
1.103806
 30
0.0000
 41
1.0000
 42
1.0000
 50
0.0000
  0
INSERT
  2
ROUND_20
  8
_GBR
 10
2.51916
 20
2.263255
 30
0.0000
 41
1.0000
 42
1.0000
 50
0.0000
  0
INSERT
  2
ROUND_20
  8
_GBR
 10
1.730971
 20
2.277822
 30
0.0000
 41
1.0000
 42
1.0000
 50
0.0000
  0
INSERT
  2
ROUND_20
  8
_GBR
 10
1.274278
 20
0.630184
 30
0.0000
 41
1.0000
 42
1.0000
 50
0.0000
  0
INSERT
  2
ROUND_20
  8
_GBR
 10
1.852625
 20
2.082152
 30
0.0000
 41
1.0000
 42
1.0000
 50
0.0000
  0
INSERT
  2
ROUND_20
  8
_GBR
 10
1.103058
 20
0.934121
 30
0.0000
 41
1.0000
 42
1.0000
 50
0.0000
  0
INSERT
  2
ROUND_20
  8
_GBR
 10
1.14357
 20
1.16168
 30
0.0000
 41
1.0000
 42
1.0000
 50
0.0000
  0
INSERT
  2
ROUND_20
  8
_GBR
 10
0.916798
 20
1.030184
 30
0.0000
 41
1.0000
 42
1.0000
 50
0.0000
  0
INSERT
  2
ROUND_20
  8
_GBR
 10
0.735696
 20
3.274278
 30
0.0000
 41
1.0000
 42
1.0000
 50
0.0000
  0
INSERT
  2
ROUND_20
  8
_GBR
 10
0.735696
 20
2.758136
 30
0.0000
 41
1.0000
 42
1.0000
 50
0.0000
  0
INSERT
  2
ROUND_7
  8
_GBR
 10
2.157743
 20
3.435696
 30
0.0000
 41
1.0000
 42
1.0000
 50
0.0000
  0
INSERT
  2
ROUND_7
  8
_GBR
 10
2.357743
 20
3.435696
 30
0.0000
 41
1.0000
 42
1.0000
 50
0.0000
  0
INSERT
  2
ROUND_7
  8
_GBR
 10
1.218766
 20
3.614436
 30
0.0000
 41
1.0000
 42
1.0000
 50
0.0000
  0
INSERT
  2
ROUND_7
  8
_GBR
 10
1.218766
 20
3.814436
 30
0.0000
 41
1.0000
 42
1.0000
 50
0.0000
  0
INSERT
  2
SQUARE_8
  8
_GBR
 10
0.709357
 20
0.745144
 30
0.0000
 41
1.0000
 42
1.0000
 50
0.0000
  0
INSERT
  2
ROUND_9
  8
_GBR
 10
1.299963
 20
0.745144
 30
0.0000
 41
1.0000
 42
1.0000
 50
0.0000
  0
INSERT
  2
ROUND_9
  8
_GBR
 10
0.807782
 20
0.745144
 30
0.0000
 41
1.0000
 42
1.0000
 50
0.0000
  0
INSERT
  2
ROUND_9
  8
_GBR
 10
0.906207
 20
0.745144
 30
0.0000
 41
1.0000
 42
1.0000
 50
0.0000
  0
INSERT
  2
ROUND_9
  8
_GBR
 10
1.004633
 20
0.745144
 30
0.0000
 41
1.0000
 42
1.0000
 50
0.0000
  0
INSERT
  2
ROUND_9
  8
_GBR
 10
1.103058
 20
0.745144
 30
0.0000
 41
1.0000
 42
1.0000
 50
0.0000
  0
INSERT
  2
ROUND_9
  8
_GBR
 10
1.201483
 20
0.745144
 30
0.0000
 41
1.0000
 42
1.0000
 50
0.0000
  0
INSERT
  2
ROUND_9
  8
_GBR
 10
1.398388
 20
0.745144
 30
0.0000
 41
1.0000
 42
1.0000
 50
0.0000
  0
INSERT
  2
ROUND_9
  8
_GBR
 10
1.496814
 20
0.745144
 30
0.0000
 41
1.0000
 42
1.0000
 50
0.0000
  0
INSERT
  2
ROUND_9
  8
_GBR
 10
1.595239
 20
0.745144
 30
0.0000
 41
1.0000
 42
1.0000
 50
0.0000
  0
INSERT
  2
ROUND_9
  8
_GBR
 10
1.693664
 20
0.745144
 30
0.0000
 41
1.0000
 42
1.0000
 50
0.0000
  0
INSERT
  2
ROUND_9
  8
_GBR
 10
1.792089
 20
0.745144
 30
0.0000
 41
1.0000
 42
1.0000
 50
0.0000
  0
INSERT
  2
ROUND_9
  8
_GBR
 10
1.89042
 20
0.745144
 30
0.0000
 41
1.0000
 42
1.0000
 50
0.0000
  0
INSERT
  2
ROUND_9
  8
_GBR
 10
1.988845
 20
0.745144
 30
0.0000
 41
1.0000
 42
1.0000
 50
0.0000
  0
INSERT
  2
SQUARE_8
  8
_GBR
 10
0.834121
 20
3.56168
 30
0.0000
 41
1.0000
 42
1.0000
 50
0.0000
  0
INSERT
  2
ROUND_9
  8
_GBR
 10
0.735696
 20
3.56168
 30
0.0000
 41
1.0000
 42
1.0000
 50
0.0000
  0
INSERT
  2
ROUND_9
  8
_GBR
 10
0.63727
 20
3.56168
 30
0.0000
 41
1.0000
 42
1.0000
 50
0.0000
  0
INSERT
  2
OBLONG_10
  8
_GBR
 10
2.130577
 20
3.822703
 30
0.0000
 41
1.0000
 42
1.0000
 50
0.0000
  0
INSERT
  2
OBLONG_13
  8
_GBR
 10
2.366798
 20
3.822703
 30
0.0000
 41
1.0000
 42
1.0000
 50
0.0000
  0
INSERT
  2
OBLONG_14
  8
_GBR
 10
2.248688
 20
3.62979
 30
0.0000
 41
1.0000
 42
1.0000
 50
0.0000
  0
INSERT
  2
RECTANGLE_15
  8
_GBR
 10
0.729396
 20
3.864436
 30
0.0000
 41
1.0000
 42
1.0000
 50
0.0000
  0
INSERT
  2
RECTANGLE_15
  8
_GBR
 10
0.839633
 20
3.864436
 30
0.0000
 41
1.0000
 42
1.0000
 50
0.0000
  0
INSERT
  2
RECTANGLE_16
  8
_GBR
 10
2.053018
 20
2.37664
 30
0.0000
 41
1.0000
 42
1.0000
 50
0.0000
  0
INSERT
  2
RECTANGLE_16
  8
_GBR
 10
2.053018
 20
2.32664
 30
0.0000
 41
1.0000
 42
1.0000
 50
0.0000
  0
INSERT
  2
RECTANGLE_16
  8
_GBR
 10
2.053018
 20
2.27664
 30
0.0000
 41
1.0000
 42
1.0000
 50
0.0000
  0
INSERT
  2
RECTANGLE_16
  8
_GBR
 10
2.053018
 20
2.22664
 30
0.0000
 41
1.0000
 42
1.0000
 50
0.0000
  0
INSERT
  2
RECTANGLE_16
  8
_GBR
 10
2.344357
 20
2.22664
 30
0.0000
 41
1.0000
 42
1.0000
 50
0.0000
  0
INSERT
  2
RECTANGLE_16
  8
_GBR
 10
2.344357
 20
2.27664
 30
0.0000
 41
1.0000
 42
1.0000
 50
0.0000
  0
INSERT
  2
RECTANGLE_16
  8
_GBR
 10
2.344357
 20
2.32664
 30
0.0000
 41
1.0000
 42
1.0000
 50
0.0000
  0
INSERT
  2
RECTANGLE_16
  8
_GBR
 10
2.344357
 20
2.37664
 30
0.0000
 41
1.0000
 42
1.0000
 50
0.0000
  0
INSERT
  2
RECTANGLE_18
  8
_GBR
 10
2.189239
 20
3.223097
 30
0.0000
 41
1.0000
 42
1.0000
 50
0.0000
  0
INSERT
  2
RECTANGLE_18
  8
_GBR
 10
2.189239
 20
3.132546
 30
0.0000
 41
1.0000
 42
1.0000
 50
0.0000
  0
INSERT
  2
RECTANGLE_18
  8
_GBR
 10
2.189239
 20
3.041995
 30
0.0000
 41
1.0000
 42
1.0000
 50
0.0000
  0
INSERT
  2
RECTANGLE_19
  8
_GBR
 10
2.417585
 20
3.132546
 30
0.0000
 41
1.0000
 42
1.0000
 50
0.0000
  0
INSERT
  2
ROUND_9
  8
_GBR
 10
0.937664
 20
1.28727
 30
0.0000
 41
1.0000
 42
1.0000
 50
0.0000
  0
INSERT
  2
ROUND_9
  8
_GBR
 10
0.937664
 20
1.385696
 30
0.0000
 41
1.0000
 42
1.0000
 50
0.0000
  0
INSERT
  2
ROUND_9
  8
_GBR
 10
0.937664
 20
1.484121
 30
0.0000
 41
1.0000
 42
1.0000
 50
0.0000
  0
INSERT
  2
ROUND_9
  8
_GBR
 10
0.937664
 20
1.582546
 30
0.0000
 41
1.0000
 42
1.0000
 50
0.0000
  0
INSERT
  2
ROUND_9
  8
_GBR
 10
0.937664
 20
1.680971
 30
0.0000
 41
1.0000
 42
1.0000
 50
0.0000
  0
INSERT
  2
ROUND_9
  8
_GBR
 10
0.937664
 20
1.779396
 30
0.0000
 41
1.0000
 42
1.0000
 50
0.0000
  0
INSERT
  2
ROUND_9
  8
_GBR
 10
0.937664
 20
1.877822
 30
0.0000
 41
1.0000
 42
1.0000
 50
0.0000
  0
INSERT
  2
ROUND_9
  8
_GBR
 10
0.937664
 20
1.976247
 30
0.0000
 41
1.0000
 42
1.0000
 50
0.0000
  0
INSERT
  2
ROUND_9
  8
_GBR
 10
0.937664
 20
2.074672
 30
0.0000
 41
1.0000
 42
1.0000
 50
0.0000
  0
INSERT
  2
ROUND_9
  8
_GBR
 10
0.937664
 20
2.173097
 30
0.0000
 41
1.0000
 42
1.0000
 50
0.0000
  0
INSERT
  2
ROUND_9
  8
_GBR
 10
0.937664
 20
2.271522
 30
0.0000
 41
1.0000
 42
1.0000
 50
0.0000
  0
INSERT
  2
ROUND_9
  8
_GBR
 10
0.937664
 20
2.369948
 30
0.0000
 41
1.0000
 42
1.0000
 50
0.0000
  0
INSERT
  2
ROUND_9
  8
_GBR
 10
0.937664
 20
2.468373
 30
0.0000
 41
1.0000
 42
1.0000
 50
0.0000
  0
INSERT
  2
ROUND_9
  8
_GBR
 10
0.937664
 20
2.566798
 30
0.0000
 41
1.0000
 42
1.0000
 50
0.0000
  0
INSERT
  2
ROUND_9
  8
_GBR
 10
0.937664
 20
2.665223
 30
0.0000
 41
1.0000
 42
1.0000
 50
0.0000
  0
INSERT
  2
ROUND_9
  8
_GBR
 10
0.937664
 20
2.763648
 30
0.0000
 41
1.0000
 42
1.0000
 50
0.0000
  0
INSERT
  2
ROUND_9
  8
_GBR
 10
0.937664
 20
2.862073
 30
0.0000
 41
1.0000
 42
1.0000
 50
0.0000
  0
INSERT
  2
ROUND_9
  8
_GBR
 10
0.937664
 20
2.960499
 30
0.0000
 41
1.0000
 42
1.0000
 50
0.0000
  0
INSERT
  2
ROUND_9
  8
_GBR
 10
0.937664
 20
3.058924
 30
0.0000
 41
1.0000
 42
1.0000
 50
0.0000
  0
INSERT
  2
ROUND_9
  8
_GBR
 10
0.937664
 20
3.157349
 30
0.0000
 41
1.0000
 42
1.0000
 50
0.0000
  0
INSERT
  2
ROUND_9
  8
_GBR
 10
1.5479
 20
1.385696
 30
0.0000
 41
1.0000
 42
1.0000
 50
0.0000
  0
INSERT
  2
ROUND_9
  8
_GBR
 10
1.5479
 20
1.484121
 30
0.0000
 41
1.0000
 42
1.0000
 50
0.0000
  0
INSERT
  2
ROUND_9
  8
_GBR
 10
1.5479
 20
1.582546
 30
0.0000
 41
1.0000
 42
1.0000
 50
0.0000
  0
INSERT
  2
ROUND_9
  8
_GBR
 10
1.5479
 20
1.680971
 30
0.0000
 41
1.0000
 42
1.0000
 50
0.0000
  0
INSERT
  2
ROUND_9
  8
_GBR
 10
1.5479
 20
1.779396
 30
0.0000
 41
1.0000
 42
1.0000
 50
0.0000
  0
INSERT
  2
ROUND_9
  8
_GBR
 10
1.5479
 20
1.877822
 30
0.0000
 41
1.0000
 42
1.0000
 50
0.0000
  0
INSERT
  2
ROUND_9
  8
_GBR
 10
1.5479
 20
1.976247
 30
0.0000
 41
1.0000
 42
1.0000
 50
0.0000
  0
INSERT
  2
ROUND_9
  8
_GBR
 10
1.5479
 20
2.074672
 30
0.0000
 41
1.0000
 42
1.0000
 50
0.0000
  0
INSERT
  2
ROUND_9
  8
_GBR
 10
1.5479
 20
2.173097
 30
0.0000
 41
1.0000
 42
1.0000
 50
0.0000
  0
INSERT
  2
ROUND_9
  8
_GBR
 10
1.5479
 20
2.271522
 30
0.0000
 41
1.0000
 42
1.0000
 50
0.0000
  0
INSERT
  2
ROUND_9
  8
_GBR
 10
1.5479
 20
2.369948
 30
0.0000
 41
1.0000
 42
1.0000
 50
0.0000
  0
INSERT
  2
ROUND_9
  8
_GBR
 10
1.5479
 20
2.468373
 30
0.0000
 41
1.0000
 42
1.0000
 50
0.0000
  0
INSERT
  2
ROUND_9
  8
_GBR
 10
1.5479
 20
2.566798
 30
0.0000
 41
1.0000
 42
1.0000
 50
0.0000
  0
INSERT
  2
ROUND_9
  8
_GBR
 10
1.5479
 20
2.665223
 30
0.0000
 41
1.0000
 42
1.0000
 50
0.0000
  0
INSERT
  2
ROUND_9
  8
_GBR
 10
1.5479
 20
2.763648
 30
0.0000
 41
1.0000
 42
1.0000
 50
0.0000
  0
INSERT
  2
ROUND_9
  8
_GBR
 10
1.5479
 20
2.862073
 30
0.0000
 41
1.0000
 42
1.0000
 50
0.0000
  0
INSERT
  2
ROUND_9
  8
_GBR
 10
1.5479
 20
2.960499
 30
0.0000
 41
1.0000
 42
1.0000
 50
0.0000
  0
INSERT
  2
ROUND_9
  8
_GBR
 10
1.5479
 20
3.058924
 30
0.0000
 41
1.0000
 42
1.0000
 50
0.0000
  0
INSERT
  2
ROUND_9
  8
_GBR
 10
1.5479
 20
3.157349
 30
0.0000
 41
1.0000
 42
1.0000
 50
0.0000
  0
INSERT
  2
ROUND_9
  8
_GBR
 10
1.5479
 20
1.28727
 30
0.0000
 41
1.0000
 42
1.0000
 50
0.0000
  0
POLYLINE
  8
_GBR
 66
1
 10
0.0000
 20
0.0000
 30
0.0000
 40
0.031496
 41
0.031496
  0
VERTEX
  8
_GBR
 10
2.189239
 20
3.041995
 30
0.0000
  0
VERTEX
  8
_GBR
 10
1.92231
 20
3.041995
 30
0.0000
  0
SEQEND
  0
POLYLINE
  8
_GBR
 66
1
 10
0.0000
 20
0.0000
 30
0.0000
 40
0.031496
 41
0.031496
  0
VERTEX
  8
_GBR
 10
2.033727
 20
3.436877
 30
0.0000
  0
VERTEX
  8
_GBR
 10
2.033727
 20
3.50105
 30
0.0000
  0
VERTEX
  8
_GBR
 10
2.059318
 20
3.52664
 30
0.0000
  0
VERTEX
  8
_GBR
 10
2.365617
 20
3.52664
 30
0.0000
  0
VERTEX
  8
_GBR
 10
2.426247
 20
3.58727
 30
0.0000
  0
VERTEX
  8
_GBR
 10
2.426247
 20
3.788451
 30
0.0000
  0
VERTEX
  8
_GBR
 10
2.391995
 20
3.822703
 30
0.0000
  0
VERTEX
  8
_GBR
 10
2.366798
 20
3.822703
 30
0.0000
  0
SEQEND
  0
POLYLINE
  8
_GBR
 66
1
 10
0.0000
 20
0.0000
 30
0.0000
 40
0.031496
 41
0.031496
  0
VERTEX
  8
_GBR
 10
2.157743
 20
3.435696
 30
0.0000
  0
VERTEX
  8
_GBR
 10
2.033727
 20
3.436877
 30
0.0000
  0
SEQEND
  0
POLYLINE
  8
_GBR
 66
1
 10
0.0000
 20
0.0000
 30
0.0000
 40
0.031496
 41
0.031496
  0
VERTEX
  8
_GBR
 10
2.189239
 20
3.223097
 30
0.0000
  0
VERTEX
  8
_GBR
 10
2.080184
 20
3.223097
 30
0.0000
  0
VERTEX
  8
_GBR
 10
2.013255
 20
3.290026
 30
0.0000
  0
SEQEND
  0
POLYLINE
  8
_GBR
 66
1
 10
0.0000
 20
0.0000
 30
0.0000
 40
0.031496
 41
0.031496
  0
VERTEX
  8
_GBR
 10
2.234514
 20
3.964436
 30
0.0000
  0
VERTEX
  8
_GBR
 10
2.234514
 20
3.62979
 30
0.0000
  0
VERTEX
  8
_GBR
 10
2.248688
 20
3.62979
 30
0.0000
  0
SEQEND
  0
POLYLINE
  8
_GBR
 66
1
 10
0.0000
 20
0.0000
 30
0.0000
 40
0.031496
 41
0.031496
  0
VERTEX
  8
_GBR
 10
2.357743
 20
3.435696
 30
0.0000
  0
VERTEX
  8
_GBR
 10
2.51601
 20
3.435696
 30
0.0000
  0
SEQEND
  0
POLYLINE
  8
_GBR
 66
1
 10
0.0000
 20
0.0000
 30
0.0000
 40
0.031496
 41
0.031496
  0
VERTEX
  8
_GBR
 10
2.248688
 20
3.62979
 30
0.0000
  0
VERTEX
  8
_GBR
 10
2.248688
 20
3.980577
 30
0.0000
  0
VERTEX
  8
_GBR
 10
1.211337
 20
3.980577
 30
0.0000
  0
VERTEX
  8
_GBR
 10
0.695538
 20
3.980577
 30
0.0000
  0
VERTEX
  8
_GBR
 10
0.622703
 20
3.907743
 30
0.0000
  0
VERTEX
  8
_GBR
 10
0.622703
 20
3.576247
 30
0.0000
  0
VERTEX
  8
_GBR
 10
0.63727
 20
3.56168
 30
0.0000
  0
SEQEND
  0
POLYLINE
  8
_GBR
 66
1
 10
0.0000
 20
0.0000
 30
0.0000
 40
0.031496
 41
0.031496
  0
VERTEX
  8
_GBR
 10
1.218766
 20
3.814436
 30
0.0000
  0
VERTEX
  8
_GBR
 10
1.211337
 20
3.814436
 30
0.0000
  0
VERTEX
  8
_GBR
 10
1.211337
 20
3.980577
 30
0.0000
  0
SEQEND
  0
POLYLINE
  8
_GBR
 66
1
 10
0.0000
 20
0.0000
 30
0.0000
 40
0.031496
 41
0.031496
  0
VERTEX
  8
_GBR
 10
0.63727
 20
3.56168
 30
0.0000
  0
VERTEX
  8
_GBR
 10
0.63727
 20
3.129396
 30
0.0000
  0
VERTEX
  8
_GBR
 10
0.667039
 20
3.099627
 30
0.0000
  0
VERTEX
  8
_GBR
 10
0.707743
 20
3.058924
 30
0.0000
  0
VERTEX
  8
_GBR
 10
0.937664
 20
3.058924
 30
0.0000
  0
SEQEND
  0
POLYLINE
  8
_GBR
 66
1
 10
0.0000
 20
0.0000
 30
0.0000
 40
0.023622
 41
0.023622
  0
VERTEX
  8
_GBR
 10
2.053018
 20
2.22664
 30
0.0000
  0
VERTEX
  8
_GBR
 10
2.053018
 20
2.199081
 30
0.0000
  0
SEQEND
  0
POLYLINE
  8
_GBR
 66
1
 10
0.0000
 20
0.0000
 30
0.0000
 40
0.031496
 41
0.031496
  0
VERTEX
  8
_GBR
 10
2.053018
 20
2.199081
 30
0.0000
  0
VERTEX
  8
_GBR
 10
2.053018
 20
2.157743
 30
0.0000
  0
SEQEND
  0
POLYLINE
  8
_GBR
 66
1
 10
0.0000
 20
0.0000
 30
0.0000
 40
0.031496
 41
0.031496
  0
VERTEX
  8
_GBR
 10
2.189239
 20
3.132546
 30
0.0000
  0
VERTEX
  8
_GBR
 10
1.926247
 20
3.132546
 30
0.0000
  0
VERTEX
  8
_GBR
 10
1.75105
 20
3.307743
 30
0.0000
  0
VERTEX
  8
_GBR
 10
1.75105
 20
3.312467
 30
0.0000
  0
VERTEX
  8
_GBR
 10
1.710105
 20
3.353412
 30
0.0000
  0
VERTEX
  8
_GBR
 10
0.933727
 20
3.353412
 30
0.0000
  0
VERTEX
  8
_GBR
 10
0.933727
 20
3.161286
 30
0.0000
  0
VERTEX
  8
_GBR
 10
0.937664
 20
3.157349
 30
0.0000
  0
SEQEND
  0
POLYLINE
  8
_GBR
 66
1
 10
0.0000
 20
0.0000
 30
0.0000
 40
0.023622
 41
0.023622
  0
VERTEX
  8
_GBR
 10
2.053018
 20
2.27664
 30
0.0000
  0
VERTEX
  8
_GBR
 10
2.108136
 20
2.27664
 30
0.0000
  0
SEQEND
  0
POLYLINE
  8
_GBR
 66
1
 10
0.0000
 20
0.0000
 30
0.0000
 40
0.031496
 41
0.031496
  0
VERTEX
  8
_GBR
 10
2.108136
 20
2.27664
 30
0.0000
  0
VERTEX
  8
_GBR
 10
2.157349
 20
2.27664
 30
0.0000
  0
VERTEX
  8
_GBR
 10
2.20105
 20
2.320341
 30
0.0000
  0
VERTEX
  8
_GBR
 10
2.28294
 20
2.320341
 30
0.0000
  0
VERTEX
  8
_GBR
 10
2.289239
 20
2.32664
 30
0.0000
  0
SEQEND
  0
POLYLINE
  8
_GBR
 66
1
 10
0.0000
 20
0.0000
 30
0.0000
 40
0.023622
 41
0.023622
  0
VERTEX
  8
_GBR
 10
2.289239
 20
2.32664
 30
0.0000
  0
VERTEX
  8
_GBR
 10
2.344357
 20
2.32664
 30
0.0000
  0
VERTEX
  8
_GBR
 10
2.344357
 20
2.37664
 30
0.0000
  0
VERTEX
  8
_GBR
 10
2.344357
 20
2.673097
 30
0.0000
  0
SEQEND
  0
POLYLINE
  8
_GBR
 66
1
 10
0.0000
 20
0.0000
 30
0.0000
 40
0.031496
 41
0.031496
  0
VERTEX
  8
_GBR
 10
2.344357
 20
2.673097
 30
0.0000
  0
VERTEX
  8
_GBR
 10
2.30853
 20
2.708924
 30
0.0000
  0
VERTEX
  8
_GBR
 10
2.30853
 20
3.10105
 30
0.0000
  0
VERTEX
  8
_GBR
 10
2.277822
 20
3.131759
 30
0.0000
  0
VERTEX
  8
_GBR
 10
2.190026
 20
3.131759
 30
0.0000
  0
VERTEX
  8
_GBR
 10
2.189239
 20
3.132546
 30
0.0000
  0
SEQEND
  0
POLYLINE
  8
_GBR
 66
1
 10
0.0000
 20
0.0000
 30
0.0000
 40
0.031496
 41
0.031496
  0
VERTEX
  8
_GBR
 10
1.398388
 20
0.563255
 30
0.0000
  0
VERTEX
  8
_GBR
 10
2.230577
 20
0.563255
 30
0.0000
  0
VERTEX
  8
_GBR
 10
2.627034
 20
0.959711
 30
0.0000
  0
VERTEX
  8
_GBR
 10
2.627034
 20
2.312861
 30
0.0000
  0
VERTEX
  8
_GBR
 10
2.56601
 20
2.373885
 30
0.0000
  0
VERTEX
  8
_GBR
 10
2.402231
 20
2.373885
 30
0.0000
  0
VERTEX
  8
_GBR
 10
2.399475
 20
2.37664
 30
0.0000
  0
SEQEND
  0
POLYLINE
  8
_GBR
 66
1
 10
0.0000
 20
0.0000
 30
0.0000
 40
0.023622
 41
0.023622
  0
VERTEX
  8
_GBR
 10
2.399475
 20
2.37664
 30
0.0000
  0
VERTEX
  8
_GBR
 10
2.344357
 20
2.37664
 30
0.0000
  0
SEQEND
  0
POLYLINE
  8
_GBR
 66
1
 10
0.0000
 20
0.0000
 30
0.0000
 40
0.031496
 41
0.031496
  0
VERTEX
  8
_GBR
 10
1.988845
 20
0.459318
 30
0.0000
  0
VERTEX
  8
_GBR
 10
0.630577
 20
0.459318
 30
0.0000
  0
VERTEX
  8
_GBR
 10
0.581759
 20
0.508136
 30
0.0000
  0
VERTEX
  8
_GBR
 10
0.581759
 20
1.815617
 30
0.0000
  0
VERTEX
  8
_GBR
 10
0.634908
 20
1.868766
 30
0.0000
  0
VERTEX
  8
_GBR
 10
0.928609
 20
1.868766
 30
0.0000
  0
VERTEX
  8
_GBR
 10
0.937664
 20
1.877822
 30
0.0000
  0
SEQEND
  0
POLYLINE
  8
_GBR
 66
1
 10
0.0000
 20
0.0000
 30
0.0000
 40
0.031496
 41
0.031496
  0
VERTEX
  8
_GBR
 10
0.937664
 20
1.484121
 30
0.0000
  0
VERTEX
  8
_GBR
 10
1.074278
 20
1.484121
 30
0.0000
  0
SEQEND
  0
POLYLINE
  8
_GBR
 66
1
 10
0.0000
 20
0.0000
 30
0.0000
 40
0.031496
 41
0.031496
  0
VERTEX
  8
_GBR
 10
1.30853
 20
1.484121
 30
0.0000
  0
VERTEX
  8
_GBR
 10
1.30853
 20
1.118766
 30
0.0000
  0
VERTEX
  8
_GBR
 10
1.412467
 20
1.014829
 30
0.0000
  0
VERTEX
  8
_GBR
 10
1.873885
 20
1.014829
 30
0.0000
  0
SEQEND
  0
POLYLINE
  8
_GBR
 66
1
 10
0.0000
 20
0.0000
 30
0.0000
 40
0.031496
 41
0.031496
  0
VERTEX
  8
_GBR
 10
0.937664
 20
1.582546
 30
0.0000
  0
VERTEX
  8
_GBR
 10
1.045932
 20
1.582546
 30
0.0000
  0
VERTEX
  8
_GBR
 10
1.056168
 20
1.592782
 30
0.0000
  0
SEQEND
  0
POLYLINE
  8
_GBR
 66
1
 10
0.0000
 20
0.0000
 30
0.0000
 40
0.031496
 41
0.031496
  0
VERTEX
  8
_GBR
 10
1.226247
 20
1.604199
 30
0.0000
  0
VERTEX
  8
_GBR
 10
1.226247
 20
1.048688
 30
0.0000
  0
VERTEX
  8
_GBR
 10
1.352231
 20
0.922703
 30
0.0000
  0
VERTEX
  8
_GBR
 10
1.78294
 20
0.922703
 30
0.0000
  0
SEQEND
  0
POLYLINE
  8
_GBR
 66
1
 10
0.0000
 20
0.0000
 30
0.0000
 40
0.031496
 41
0.031496
  0
VERTEX
  8
_GBR
 10
0.459318
 20
1.976247
 30
0.0000
  0
VERTEX
  8
_GBR
 10
0.937664
 20
1.976247
 30
0.0000
  0
SEQEND
  0
POLYLINE
  8
_GBR
 66
1
 10
0.0000
 20
0.0000
 30
0.0000
 40
0.031496
 41
0.031496
  0
VERTEX
  8
_GBR
 10
0.937664
 20
1.385696
 30
0.0000
  0
VERTEX
  8
_GBR
 10
1.061286
 20
1.385696
 30
0.0000
  0
SEQEND
  0
POLYLINE
  8
_GBR
 66
1
 10
0.0000
 20
0.0000
 30
0.0000
 40
0.031496
 41
0.031496
  0
VERTEX
  8
_GBR
 10
1.399475
 20
1.371129
 30
0.0000
  0
VERTEX
  8
_GBR
 10
1.399475
 20
1.171522
 30
0.0000
  0
VERTEX
  8
_GBR
 10
1.467192
 20
1.103806
 30
0.0000
  0
VERTEX
  8
_GBR
 10
1.606168
 20
1.103806
 30
0.0000
  0
SEQEND
  0
POLYLINE
  8
_GBR
 66
1
 10
0.0000
 20
0.0000
 30
0.0000
 40
0.023622
 41
0.023622
  0
VERTEX
  8
_GBR
 10
2.344357
 20
2.27664
 30
0.0000
  0
VERTEX
  8
_GBR
 10
2.399475
 20
2.27664
 30
0.0000
  0
SEQEND
  0
POLYLINE
  8
_GBR
 66
1
 10
0.0000
 20
0.0000
 30
0.0000
 40
0.031496
 41
0.031496
  0
VERTEX
  8
_GBR
 10
2.399475
 20
2.27664
 30
0.0000
  0
VERTEX
  8
_GBR
 10
2.505774
 20
2.27664
 30
0.0000
  0
VERTEX
  8
_GBR
 10
2.51916
 20
2.263255
 30
0.0000
  0
SEQEND
  0
POLYLINE
  8
_GBR
 66
1
 10
0.0000
 20
0.0000
 30
0.0000
 40
0.031496
 41
0.031496
  0
VERTEX
  8
_GBR
 10
1.730971
 20
2.277822
 30
0.0000
  0
VERTEX
  8
_GBR
 10
1.554199
 20
2.277822
 30
0.0000
  0
VERTEX
  8
_GBR
 10
1.5479
 20
2.271522
 30
0.0000
  0
SEQEND
  0
POLYLINE
  8
_GBR
 66
1
 10
0.0000
 20
0.0000
 30
0.0000
 40
0.031496
 41
0.031496
  0
VERTEX
  8
_GBR
 10
1.274278
 20
0.630184
 30
0.0000
  0
VERTEX
  8
_GBR
 10
2.129003
 20
0.630184
 30
0.0000
  0
VERTEX
  8
_GBR
 10
2.505774
 20
1.006955
 30
0.0000
  0
VERTEX
  8
_GBR
 10
2.505774
 20
2.27664
 30
0.0000
  0
SEQEND
  0
POLYLINE
  8
_GBR
 66
1
 10
0.0000
 20
0.0000
 30
0.0000
 40
0.023622
 41
0.023622
  0
VERTEX
  8
_GBR
 10
2.344357
 20
2.22664
 30
0.0000
  0
VERTEX
  8
_GBR
 10
2.344357
 20
2.199081
 30
0.0000
  0
SEQEND
  0
POLYLINE
  8
_GBR
 66
1
 10
0.0000
 20
0.0000
 30
0.0000
 40
0.031496
 41
0.031496
  0
VERTEX
  8
_GBR
 10
2.344357
 20
2.199081
 30
0.0000
  0
VERTEX
  8
_GBR
 10
2.344357
 20
2.132152
 30
0.0000
  0
VERTEX
  8
_GBR
 10
2.294357
 20
2.082152
 30
0.0000
  0
VERTEX
  8
_GBR
 10
1.852625
 20
2.082152
 30
0.0000
  0
VERTEX
  8
_GBR
 10
1.852625
 20
2.078609
 30
0.0000
  0
VERTEX
  8
_GBR
 10
1.551837
 20
2.078609
 30
0.0000
  0
VERTEX
  8
_GBR
 10
1.5479
 20
2.074672
 30
0.0000
  0
SEQEND
  0
POLYLINE
  8
_GBR
 66
1
 10
0.0000
 20
0.0000
 30
0.0000
 40
0.031496
 41
0.031496
  0
VERTEX
  8
_GBR
 10
1.103058
 20
0.934121
 30
0.0000
  0
VERTEX
  8
_GBR
 10
0.874278
 20
0.934121
 30
0.0000
  0
VERTEX
  8
_GBR
 10
0.812073
 20
0.996325
 30
0.0000
  0
VERTEX
  8
_GBR
 10
0.812073
 20
1.634121
 30
0.0000
  0
VERTEX
  8
_GBR
 10
0.856562
 20
1.678609
 30
0.0000
  0
VERTEX
  8
_GBR
 10
0.935302
 20
1.678609
 30
0.0000
  0
VERTEX
  8
_GBR
 10
0.937664
 20
1.680971
 30
0.0000
  0
SEQEND
  0
POLYLINE
  8
_GBR
 66
1
 10
0.0000
 20
0.0000
 30
0.0000
 40
0.031496
 41
0.031496
  0
VERTEX
  8
_GBR
 10
1.14357
 20
1.16168
 30
0.0000
  0
VERTEX
  8
_GBR
 10
1.14357
 20
1.637664
 30
0.0000
  0
VERTEX
  8
_GBR
 10
0.986877
 20
1.794357
 30
0.0000
  0
VERTEX
  8
_GBR
 10
0.952625
 20
1.794357
 30
0.0000
  0
VERTEX
  8
_GBR
 10
0.937664
 20
1.779396
 30
0.0000
  0
SEQEND
  0
POLYLINE
  8
_GBR
 66
1
 10
0.0000
 20
0.0000
 30
0.0000
 40
0.031496
 41
0.031496
  0
VERTEX
  8
_GBR
 10
0.916798
 20
1.030184
 30
0.0000
  0
VERTEX
  8
_GBR
 10
0.912467
 20
1.025853
 30
0.0000
  0
VERTEX
  8
_GBR
 10
0.912467
 20
1.28727
 30
0.0000
  0
VERTEX
  8
_GBR
 10
0.937664
 20
1.28727
 30
0.0000
  0
SEQEND
  0
POLYLINE
  8
_GBR
 66
1
 10
0.0000
 20
0.0000
 30
0.0000
 40
0.023622
 41
0.023622
  0
VERTEX
  8
_GBR
 10
2.053018
 20
2.37664
 30
0.0000
  0
VERTEX
  8
_GBR
 10
1.9979
 20
2.37664
 30
0.0000
  0
SEQEND
  0
POLYLINE
  8
_GBR
 66
1
 10
0.0000
 20
0.0000
 30
0.0000
 40
0.031496
 41
0.031496
  0
VERTEX
  8
_GBR
 10
1.9979
 20
2.37664
 30
0.0000
  0
VERTEX
  8
_GBR
 10
1.554593
 20
2.37664
 30
0.0000
  0
VERTEX
  8
_GBR
 10
1.5479
 20
2.369948
 30
0.0000
  0
SEQEND
  0
POLYLINE
  8
_GBR
 66
1
 10
0.0000
 20
0.0000
 30
0.0000
 40
0.023622
 41
0.023622
  0
VERTEX
  8
_GBR
 10
2.053018
 20
2.32664
 30
0.0000
  0
VERTEX
  8
_GBR
 10
1.9979
 20
2.32664
 30
0.0000
  0
SEQEND
  0
POLYLINE
  8
_GBR
 66
1
 10
0.0000
 20
0.0000
 30
0.0000
 40
0.031496
 41
0.031496
  0
VERTEX
  8
_GBR
 10
1.9979
 20
2.32664
 30
0.0000
  0
VERTEX
  8
_GBR
 10
1.970735
 20
2.32664
 30
0.0000
  0
VERTEX
  8
_GBR
 10
1.81601
 20
2.171916
 30
0.0000
  0
VERTEX
  8
_GBR
 10
1.549081
 20
2.171916
 30
0.0000
  0
VERTEX
  8
_GBR
 10
1.5479
 20
2.173097
 30
0.0000
  0
SEQEND
  0
POLYLINE
  8
_GBR
 66
1
 10
0.0000
 20
0.0000
 30
0.0000
 40
0.031496
 41
0.031496
  0
VERTEX
  8
_GBR
 10
2.130577
 20
3.822703
 30
0.0000
  0
VERTEX
  8
_GBR
 10
1.541207
 20
3.822703
 30
0.0000
  0
VERTEX
  8
_GBR
 10
1.282546
 20
3.564042
 30
0.0000
  0
VERTEX
  8
_GBR
 10
1.218248
 20
3.564042
 30
0.0000
  0
VERTEX
  8
_GBR
 10
0.836483
 20
3.564042
 30
0.0000
  0
VERTEX
  8
_GBR
 10
0.834121
 20
3.56168
 30
0.0000
  0
SEQEND
  0
POLYLINE
  8
_GBR
 66
1
 10
0.0000
 20
0.0000
 30
0.0000
 40
0.031496
 41
0.031496
  0
VERTEX
  8
_GBR
 10
1.218248
 20
3.564042
 30
0.0000
  0
VERTEX
  8
_GBR
 10
1.218248
 20
3.613917
 30
0.0000
  0
VERTEX
  8
_GBR
 10
1.218766
 20
3.614436
 30
0.0000
  0
SEQEND
  0
POLYLINE
  8
_GBR
 66
1
 10
0.0000
 20
0.0000
 30
0.0000
 40
0.031496
 41
0.031496
  0
VERTEX
  8
_GBR
 10
0.839633
 20
3.864436
 30
0.0000
  0
VERTEX
  8
_GBR
 10
0.839633
 20
3.567192
 30
0.0000
  0
VERTEX
  8
_GBR
 10
0.834121
 20
3.56168
 30
0.0000
  0
SEQEND
  0
POLYLINE
  8
_GBR
 66
1
 10
0.0000
 20
0.0000
 30
0.0000
 40
0.031496
 41
0.031496
  0
VERTEX
  8
_GBR
 10
0.735696
 20
3.56168
 30
0.0000
  0
VERTEX
  8
_GBR
 10
0.735696
 20
3.274278
 30
0.0000
  0
SEQEND
  0
POLYLINE
  8
_GBR
 66
1
 10
0.0000
 20
0.0000
 30
0.0000
 40
0.031496
 41
0.031496
  0
VERTEX
  8
_GBR
 10
0.735696
 20
2.758136
 30
0.0000
  0
VERTEX
  8
_GBR
 10
0.932152
 20
2.758136
 30
0.0000
  0
VERTEX
  8
_GBR
 10
0.937664
 20
2.763648
 30
0.0000
  0
SEQEND
  0
POLYLINE
  8
_GBR
 66
1
 10
0.0000
 20
0.0000
 30
0.0000
 40
0.031496
 41
0.031496
  0
VERTEX
  8
_GBR
 10
0.729396
 20
3.864436
 30
0.0000
  0
VERTEX
  8
_GBR
 10
0.729396
 20
3.567979
 30
0.0000
  0
VERTEX
  8
_GBR
 10
0.735696
 20
3.56168
 30
0.0000
  0
SEQEND
  0
ENDSEC
  0
EOF
