  0
SECTION
  2
HEADER
  9
$EXTMIN
 10
0.390945
 20
0.390945
 30
0.0000
  9
$EXTMAX
 10
2.695407
 20
4.046588
 30
0.0000
  0
ENDSEC
  0
SECTION
  2
TABLES
  0
TABLE
  2
LTYPE
 70
3
  0
LTYPE
  2
BYBLOCK
 70
0
  3

 72
65
 73
0
 40
0.0000
  0
LTYPE
  2
BYLAYER
 70
0
  3

 72
65
 73
0
 40
0.0000
  0
LTYPE
  2
CONTINUOUS
 70
0
  3
Solid line
 72
65
 73
0
 40
0.0000
  0
ENDTAB
  0
TABLE
  2
LAYER
 70
4
  0
LAYER
  2
0
 70
0
 62
7
  6
CONTINUOUS
  0
LAYER
  2
_GBR
 70
0
 62
2
  6
CONTINUOUS
  0
LAYER
  2
_GBR
 70
0
 62
6
  6
CONTINUOUS
  0
LAYER
  2
_GBR
 70
0
 62
1
  6
CONTINUOUS
  0
LAYER
  2
THROUGH_DRL
 70
0
 62
7
  6
CONTINUOUS
  0
ENDTAB
  0
TABLE
  2
STYLE
 70
0
  0
ENDTAB
  0
ENDSEC
  0
SECTION
  2
BLOCKS
  0
BLOCK
  2
ROUND_1
  3
ROUND_1
 70
64
 10
0.0000
 20
0.0000
 30
0.0000
  0
CIRCLE
  8
0
 10
0.0000
 20
0.0000
 30
0.0000
 40
0.0197
  0
ENDBLK
  0
BLOCK
  2
ROUND_2
  3
ROUND_2
 70
64
 10
0.0000
 20
0.0000
 30
0.0000
  0
CIRCLE
  8
0
 10
0.0000
 20
0.0000
 30
0.0000
 40
0.002756
  0
ENDBLK
  0
BLOCK
  2
ROUND_3
  3
ROUND_3
 70
64
 10
0.0000
 20
0.0000
 30
0.0000
  0
CIRCLE
  8
0
 10
0.0000
 20
0.0000
 30
0.0000
 40
0.02165
  0
ENDBLK
  0
BLOCK
  2
ROUND_5
  3
ROUND_5
 70
64
 10
0.0000
 20
0.0000
 30
0.0000
  0
CIRCLE
  8
0
 10
0.0000
 20
0.0000
 30
0.0000
 40
0.015748
  0
ENDBLK
  0
BLOCK
  2
ROUND_6
  3
ROUND_6
 70
64
 10
0.0000
 20
0.0000
 30
0.0000
  0
CIRCLE
  8
0
 10
0.0000
 20
0.0000
 30
0.0000
 40
0.0118109
  0
ENDBLK
  0
BLOCK
  2
ROUND_7
  3
ROUND_7
 70
64
 10
0.0000
 20
0.0000
 30
0.0000
  0
CIRCLE
  8
0
 10
0.0000
 20
0.0000
 30
0.0000
 40
0.0324805
  0
ENDBLK
  0
BLOCK
  2
SQUARE_8
  3
SQUARE_8
 70
64
 10
0.0000
 20
0.0000
 30
0.0000
  0
SOLID
  8
0
 10
0.03937
 20
0.03937
 30
0.0000
 11
0.03937
 21
-0.03937
 31
0.0000
 12
-0.03937
 22
0.03937
 32
0.0000
 13
-0.03937
 23
-0.03937
 33
0.0000
  0
ENDBLK
  0
BLOCK
  2
ROUND_9
  3
ROUND_9
 70
64
 10
0.0000
 20
0.0000
 30
0.0000
  0
CIRCLE
  8
0
 10
0.0000
 20
0.0000
 30
0.0000
 40
0.03937
  0
ENDBLK
  0
BLOCK
  2
OBLONG_10
  3
OBLONG_10
 70
64
 10
0.0000
 20
0.0000
 30
0.0000
  0
POLYLINE
  8
0
 66
1
 10
0.0000
 20
0.0000
 30
0.0000
 40
0.07874
 41
0.07874
  0
VERTEX
  8
0
 10
0.0000
 20
0.059055
 30
0.0000
  0
VERTEX
  8
0
 10
0.0000
 20
-0.059055
 30
0.0000
  0
SEQEND
  0
POLYLINE
  8
0
 66
1
 10
0.0000
 20
0.0000
 30
0.0000
 70
1
 40
0.03937
 41
0.03937
  0
VERTEX
  8
0
 10
-0.019685
 20
0.059055
 30
0.0000
 42
1
  0
VERTEX
  8
0
 10
0.019685
 20
0.059055
 30
0.0000
 42
1
  0
SEQEND
  0
POLYLINE
  8
0
 66
1
 10
0.0000
 20
0.0000
 30
0.0000
 70
1
 40
0.03937
 41
0.03937
  0
VERTEX
  8
0
 10
-0.019685
 20
-0.059055
 30
0.0000
 42
1
  0
VERTEX
  8
0
 10
0.019685
 20
-0.059055
 30
0.0000
 42
1
  0
SEQEND
  0
ENDBLK
  0
BLOCK
  2
OBLONG_13
  3
OBLONG_13
 70
64
 10
0.0000
 20
0.0000
 30
0.0000
  0
POLYLINE
  8
0
 66
1
 10
0.0000
 20
0.0000
 30
0.0000
 40
0.07874
 41
0.07874
  0
VERTEX
  8
0
 10
0.0000
 20
0.0492125
 30
0.0000
  0
VERTEX
  8
0
 10
0.0000
 20
-0.0492125
 30
0.0000
  0
SEQEND
  0
POLYLINE
  8
0
 66
1
 10
0.0000
 20
0.0000
 30
0.0000
 70
1
 40
0.03937
 41
0.03937
  0
VERTEX
  8
0
 10
-0.019685
 20
0.0492125
 30
0.0000
 42
1
  0
VERTEX
  8
0
 10
0.019685
 20
0.0492125
 30
0.0000
 42
1
  0
SEQEND
  0
POLYLINE
  8
0
 66
1
 10
0.0000
 20
0.0000
 30
0.0000
 70
1
 40
0.03937
 41
0.03937
  0
VERTEX
  8
0
 10
-0.019685
 20
-0.0492125
 30
0.0000
 42
1
  0
VERTEX
  8
0
 10
0.019685
 20
-0.0492125
 30
0.0000
 42
1
  0
SEQEND
  0
ENDBLK
  0
BLOCK
  2
OBLONG_14
  3
OBLONG_14
 70
64
 10
0.0000
 20
0.0000
 30
0.0000
  0
POLYLINE
  8
0
 66
1
 10
0.0000
 20
0.0000
 30
0.0000
 40
0.07874
 41
0.07874
  0
VERTEX
  8
0
 10
0.0492125
 20
0.0000
 30
0.0000
  0
VERTEX
  8
0
 10
-0.0492125
 20
0.0000
 30
0.0000
  0
SEQEND
  0
POLYLINE
  8
0
 66
1
 10
0.0000
 20
0.0000
 30
0.0000
 70
1
 40
0.03937
 41
0.03937
  0
VERTEX
  8
0
 10
0.0295276
 20
0.0000
 30
0.0000
 42
1
  0
VERTEX
  8
0
 10
0.0688975
 20
0.0000
 30
0.0000
 42
1
  0
SEQEND
  0
POLYLINE
  8
0
 66
1
 10
0.0000
 20
0.0000
 30
0.0000
 70
1
 40
0.03937
 41
0.03937
  0
VERTEX
  8
0
 10
-0.0688975
 20
0.0000
 30
0.0000
 42
1
  0
VERTEX
  8
0
 10
-0.0295276
 20
0.0000
 30
0.0000
 42
1
  0
SEQEND
  0
ENDBLK
  0
BLOCK
  2
RECTANGLE_15
  3
RECTANGLE_15
 70
64
 10
0.0000
 20
0.0000
 30
0.0000
  0
SOLID
  8
0
 10
0.031496
 20
0.035433
 30
0.0000
 11
0.031496
 21
-0.035433
 31
0.0000
 12
-0.031496
 22
0.035433
 32
0.0000
 13
-0.031496
 23
-0.035433
 33
0.0000
  0
ENDBLK
  0
BLOCK
  2
RECTANGLE_16
  3
RECTANGLE_16
 70
64
 10
0.0000
 20
0.0000
 30
0.0000
  0
SOLID
  8
0
 10
0.03937
 20
0.0118109
 30
0.0000
 11
0.03937
 21
-0.0118109
 31
0.0000
 12
-0.03937
 22
0.0118109
 32
0.0000
 13
-0.03937
 23
-0.0118109
 33
0.0000
  0
ENDBLK
  0
BLOCK
  2
RECTANGLE_18
  3
RECTANGLE_18
 70
64
 10
0.0000
 20
0.0000
 30
0.0000
  0
SOLID
  8
0
 10
0.042323
 20
0.0187009
 30
0.0000
 11
0.042323
 21
-0.0187009
 31
0.0000
 12
-0.042323
 22
0.0187009
 32
0.0000
 13
-0.042323
 23
-0.0187009
 33
0.0000
  0
ENDBLK
  0
BLOCK
  2
RECTANGLE_19
  3
RECTANGLE_19
 70
64
 10
0.0000
 20
0.0000
 30
0.0000
  0
SOLID
  8
0
 10
0.042323
 20
0.0639765
 30
0.0000
 11
0.042323
 21
-0.0639765
 31
0.0000
 12
-0.042323
 22
0.0639765
 32
0.0000
 13
-0.042323
 23
-0.0639765
 33
0.0000
  0
ENDBLK
  0
BLOCK
  2
ROUND_20
  3
ROUND_20
 70
64
 10
0.0000
 20
0.0000
 30
0.0000
  0
CIRCLE
  8
0
 10
0.0000
 20
0.0000
 30
0.0000
 40
0.03937
  0
ENDBLK
  0
ENDSEC
  0
SECTION
  2
ENTITIES
  0
INSERT
  2
ROUND_1
  8
THROUGH_DRL
 10
2.1577
 20
3.4357
 30
0.0000
 41
1.0000
 42
1.0000
 50
0.0000
  0
INSERT
  2
ROUND_1
  8
THROUGH_DRL
 10
2.3577
 20
3.4357
 30
0.0000
 41
1.0000
 42
1.0000
 50
0.0000
  0
INSERT
  2
ROUND_1
  8
THROUGH_DRL
 10
2.2979
 20
3.6298
 30
0.0000
 41
1.0000
 42
1.0000
 50
0.0000
  0
INSERT
  2
ROUND_1
  8
THROUGH_DRL
 10
2.2897
 20
3.6298
 30
0.0000
 41
1.0000
 42
1.0000
 50
0.0000
  0
INSERT
  2
ROUND_1
  8
THROUGH_DRL
 10
2.2815
 20
3.6298
 30
0.0000
 41
1.0000
 42
1.0000
 50
0.0000
  0
INSERT
  2
ROUND_1
  8
THROUGH_DRL
 10
2.2733
 20
3.6298
 30
0.0000
 41
1.0000
 42
1.0000
 50
0.0000
  0
INSERT
  2
ROUND_1
  8
THROUGH_DRL
 10
2.2651
 20
3.6298
 30
0.0000
 41
1.0000
 42
1.0000
 50
0.0000
  0
INSERT
  2
ROUND_1
  8
THROUGH_DRL
 10
2.2569
 20
3.6298
 30
0.0000
 41
1.0000
 42
1.0000
 50
0.0000
  0
INSERT
  2
ROUND_1
  8
THROUGH_DRL
 10
2.2487
 20
3.6298
 30
0.0000
 41
1.0000
 42
1.0000
 50
0.0000
  0
INSERT
  2
ROUND_1
  8
THROUGH_DRL
 10
2.2405
 20
3.6298
 30
0.0000
 41
1.0000
 42
1.0000
 50
0.0000
  0
INSERT
  2
ROUND_1
  8
THROUGH_DRL
 10
2.2323
 20
3.6298
 30
0.0000
 41
1.0000
 42
1.0000
 50
0.0000
  0
INSERT
  2
ROUND_1
  8
THROUGH_DRL
 10
2.2241
 20
3.6298
 30
0.0000
 41
1.0000
 42
1.0000
 50
0.0000
  0
INSERT
  2
ROUND_1
  8
THROUGH_DRL
 10
2.2159
 20
3.6298
 30
0.0000
 41
1.0000
 42
1.0000
 50
0.0000
  0
INSERT
  2
ROUND_1
  8
THROUGH_DRL
 10
2.2077
 20
3.6298
 30
0.0000
 41
1.0000
 42
1.0000
 50
0.0000
  0
INSERT
  2
ROUND_1
  8
THROUGH_DRL
 10
2.1995
 20
3.6298
 30
0.0000
 41
1.0000
 42
1.0000
 50
0.0000
  0
INSERT
  2
ROUND_1
  8
THROUGH_DRL
 10
2.1306
 20
3.7636
 30
0.0000
 41
1.0000
 42
1.0000
 50
0.0000
  0
INSERT
  2
ROUND_1
  8
THROUGH_DRL
 10
2.1306
 20
3.7720428
 30
0.0000
 41
1.0000
 42
1.0000
 50
0.0000
  0
INSERT
  2
ROUND_1
  8
THROUGH_DRL
 10
2.1306
 20
3.7804857
 30
0.0000
 41
1.0000
 42
1.0000
 50
0.0000
  0
INSERT
  2
ROUND_1
  8
THROUGH_DRL
 10
2.1306
 20
3.7889285
 30
0.0000
 41
1.0000
 42
1.0000
 50
0.0000
  0
INSERT
  2
ROUND_1
  8
THROUGH_DRL
 10
2.1306
 20
3.7973713
 30
0.0000
 41
1.0000
 42
1.0000
 50
0.0000
  0
INSERT
  2
ROUND_1
  8
THROUGH_DRL
 10
2.1306
 20
3.8058142
 30
0.0000
 41
1.0000
 42
1.0000
 50
0.0000
  0
INSERT
  2
ROUND_1
  8
THROUGH_DRL
 10
2.1306
 20
3.814257
 30
0.0000
 41
1.0000
 42
1.0000
 50
0.0000
  0
INSERT
  2
ROUND_1
  8
THROUGH_DRL
 10
2.1306
 20
3.8226998
 30
0.0000
 41
1.0000
 42
1.0000
 50
0.0000
  0
INSERT
  2
ROUND_1
  8
THROUGH_DRL
 10
2.1306
 20
3.8311427
 30
0.0000
 41
1.0000
 42
1.0000
 50
0.0000
  0
INSERT
  2
ROUND_1
  8
THROUGH_DRL
 10
2.1306
 20
3.8395855
 30
0.0000
 41
1.0000
 42
1.0000
 50
0.0000
  0
INSERT
  2
ROUND_1
  8
THROUGH_DRL
 10
2.1306
 20
3.8480283
 30
0.0000
 41
1.0000
 42
1.0000
 50
0.0000
  0
INSERT
  2
ROUND_1
  8
THROUGH_DRL
 10
2.1306
 20
3.8564712
 30
0.0000
 41
1.0000
 42
1.0000
 50
0.0000
  0
INSERT
  2
ROUND_1
  8
THROUGH_DRL
 10
2.1306
 20
3.864914
 30
0.0000
 41
1.0000
 42
1.0000
 50
0.0000
  0
INSERT
  2
ROUND_1
  8
THROUGH_DRL
 10
2.1306
 20
3.8733569
 30
0.0000
 41
1.0000
 42
1.0000
 50
0.0000
  0
INSERT
  2
ROUND_1
  8
THROUGH_DRL
 10
2.1306
 20
3.8818
 30
0.0000
 41
1.0000
 42
1.0000
 50
0.0000
  0
INSERT
  2
ROUND_1
  8
THROUGH_DRL
 10
2.3668
 20
3.7735
 30
0.0000
 41
1.0000
 42
1.0000
 50
0.0000
  0
INSERT
  2
ROUND_1
  8
THROUGH_DRL
 10
2.3668
 20
3.7817
 30
0.0000
 41
1.0000
 42
1.0000
 50
0.0000
  0
INSERT
  2
ROUND_1
  8
THROUGH_DRL
 10
2.3668
 20
3.7899
 30
0.0000
 41
1.0000
 42
1.0000
 50
0.0000
  0
INSERT
  2
ROUND_1
  8
THROUGH_DRL
 10
2.3668
 20
3.7981
 30
0.0000
 41
1.0000
 42
1.0000
 50
0.0000
  0
INSERT
  2
ROUND_1
  8
THROUGH_DRL
 10
2.3668
 20
3.8063
 30
0.0000
 41
1.0000
 42
1.0000
 50
0.0000
  0
INSERT
  2
ROUND_1
  8
THROUGH_DRL
 10
2.3668
 20
3.8145
 30
0.0000
 41
1.0000
 42
1.0000
 50
0.0000
  0
INSERT
  2
ROUND_1
  8
THROUGH_DRL
 10
2.3668
 20
3.8227
 30
0.0000
 41
1.0000
 42
1.0000
 50
0.0000
  0
INSERT
  2
ROUND_1
  8
THROUGH_DRL
 10
2.3668
 20
3.8309
 30
0.0000
 41
1.0000
 42
1.0000
 50
0.0000
  0
INSERT
  2
ROUND_1
  8
THROUGH_DRL
 10
2.3668
 20
3.8391
 30
0.0000
 41
1.0000
 42
1.0000
 50
0.0000
  0
INSERT
  2
ROUND_1
  8
THROUGH_DRL
 10
2.3668
 20
3.8473
 30
0.0000
 41
1.0000
 42
1.0000
 50
0.0000
  0
INSERT
  2
ROUND_1
  8
THROUGH_DRL
 10
2.3668
 20
3.8555
 30
0.0000
 41
1.0000
 42
1.0000
 50
0.0000
  0
INSERT
  2
ROUND_1
  8
THROUGH_DRL
 10
2.3668
 20
3.8637
 30
0.0000
 41
1.0000
 42
1.0000
 50
0.0000
  0
INSERT
  2
ROUND_1
  8
THROUGH_DRL
 10
2.3668
 20
3.8719
 30
0.0000
 41
1.0000
 42
1.0000
 50
0.0000
  0
INSERT
  2
ROUND_1
  8
THROUGH_DRL
 10
1.5479
 20
3.1573
 30
0.0000
 41
1.0000
 42
1.0000
 50
0.0000
  0
INSERT
  2
ROUND_1
  8
THROUGH_DRL
 10
1.5479
 20
3.0589
 30
0.0000
 41
1.0000
 42
1.0000
 50
0.0000
  0
INSERT
  2
ROUND_1
  8
THROUGH_DRL
 10
1.5479
 20
2.9605
 30
0.0000
 41
1.0000
 42
1.0000
 50
0.0000
  0
INSERT
  2
ROUND_1
  8
THROUGH_DRL
 10
1.5479
 20
2.8621
 30
0.0000
 41
1.0000
 42
1.0000
 50
0.0000
  0
INSERT
  2
ROUND_1
  8
THROUGH_DRL
 10
1.5479
 20
2.7636
 30
0.0000
 41
1.0000
 42
1.0000
 50
0.0000
  0
INSERT
  2
ROUND_1
  8
THROUGH_DRL
 10
1.5479
 20
2.6652
 30
0.0000
 41
1.0000
 42
1.0000
 50
0.0000
  0
INSERT
  2
ROUND_1
  8
THROUGH_DRL
 10
1.5479
 20
2.5668
 30
0.0000
 41
1.0000
 42
1.0000
 50
0.0000
  0
INSERT
  2
ROUND_1
  8
THROUGH_DRL
 10
1.5479
 20
2.4684
 30
0.0000
 41
1.0000
 42
1.0000
 50
0.0000
  0
INSERT
  2
ROUND_1
  8
THROUGH_DRL
 10
1.5479
 20
2.3699
 30
0.0000
 41
1.0000
 42
1.0000
 50
0.0000
  0
INSERT
  2
ROUND_1
  8
THROUGH_DRL
 10
1.5479
 20
2.2715
 30
0.0000
 41
1.0000
 42
1.0000
 50
0.0000
  0
INSERT
  2
ROUND_1
  8
THROUGH_DRL
 10
1.5479
 20
2.1731
 30
0.0000
 41
1.0000
 42
1.0000
 50
0.0000
  0
INSERT
  2
ROUND_1
  8
THROUGH_DRL
 10
1.5479
 20
2.0747
 30
0.0000
 41
1.0000
 42
1.0000
 50
0.0000
  0
INSERT
  2
ROUND_1
  8
THROUGH_DRL
 10
1.5479
 20
1.9762
 30
0.0000
 41
1.0000
 42
1.0000
 50
0.0000
  0
INSERT
  2
ROUND_1
  8
THROUGH_DRL
 10
1.5479
 20
1.8778
 30
0.0000
 41
1.0000
 42
1.0000
 50
0.0000
  0
INSERT
  2
ROUND_1
  8
THROUGH_DRL
 10
1.5479
 20
1.7794
 30
0.0000
 41
1.0000
 42
1.0000
 50
0.0000
  0
INSERT
  2
ROUND_1
  8
THROUGH_DRL
 10
1.5479
 20
1.6810
 30
0.0000
 41
1.0000
 42
1.0000
 50
0.0000
  0
INSERT
  2
ROUND_1
  8
THROUGH_DRL
 10
1.5479
 20
1.5825
 30
0.0000
 41
1.0000
 42
1.0000
 50
0.0000
  0
INSERT
  2
ROUND_1
  8
THROUGH_DRL
 10
1.5479
 20
1.4841
 30
0.0000
 41
1.0000
 42
1.0000
 50
0.0000
  0
INSERT
  2
ROUND_1
  8
THROUGH_DRL
 10
1.5479
 20
1.3857
 30
0.0000
 41
1.0000
 42
1.0000
 50
0.0000
  0
INSERT
  2
ROUND_1
  8
THROUGH_DRL
 10
1.5479
 20
1.2873
 30
0.0000
 41
1.0000
 42
1.0000
 50
0.0000
  0
INSERT
  2
ROUND_1
  8
THROUGH_DRL
 10
1.5952
 20
0.7451
 30
0.0000
 41
1.0000
 42
1.0000
 50
0.0000
  0
INSERT
  2
ROUND_1
  8
THROUGH_DRL
 10
1.6937
 20
0.7451
 30
0.0000
 41
1.0000
 42
1.0000
 50
0.0000
  0
INSERT
  2
ROUND_1
  8
THROUGH_DRL
 10
1.7921
 20
0.7451
 30
0.0000
 41
1.0000
 42
1.0000
 50
0.0000
  0
INSERT
  2
ROUND_1
  8
THROUGH_DRL
 10
1.8904
 20
0.7451
 30
0.0000
 41
1.0000
 42
1.0000
 50
0.0000
  0
INSERT
  2
ROUND_1
  8
THROUGH_DRL
 10
1.9888
 20
0.7451
 30
0.0000
 41
1.0000
 42
1.0000
 50
0.0000
  0
INSERT
  2
ROUND_1
  8
THROUGH_DRL
 10
1.4968
 20
0.7451
 30
0.0000
 41
1.0000
 42
1.0000
 50
0.0000
  0
INSERT
  2
ROUND_1
  8
THROUGH_DRL
 10
1.3984
 20
0.7451
 30
0.0000
 41
1.0000
 42
1.0000
 50
0.0000
  0
INSERT
  2
ROUND_1
  8
THROUGH_DRL
 10
1.3000
 20
0.7451
 30
0.0000
 41
1.0000
 42
1.0000
 50
0.0000
  0
INSERT
  2
ROUND_1
  8
THROUGH_DRL
 10
1.2015
 20
0.7451
 30
0.0000
 41
1.0000
 42
1.0000
 50
0.0000
  0
INSERT
  2
ROUND_1
  8
THROUGH_DRL
 10
1.1031
 20
0.7451
 30
0.0000
 41
1.0000
 42
1.0000
 50
0.0000
  0
INSERT
  2
ROUND_1
  8
THROUGH_DRL
 10
1.0046
 20
0.7451
 30
0.0000
 41
1.0000
 42
1.0000
 50
0.0000
  0
INSERT
  2
ROUND_1
  8
THROUGH_DRL
 10
0.9062
 20
0.7451
 30
0.0000
 41
1.0000
 42
1.0000
 50
0.0000
  0
INSERT
  2
ROUND_1
  8
THROUGH_DRL
 10
0.8078
 20
0.7451
 30
0.0000
 41
1.0000
 42
1.0000
 50
0.0000
  0
INSERT
  2
ROUND_1
  8
THROUGH_DRL
 10
0.7094
 20
0.7451
 30
0.0000
 41
1.0000
 42
1.0000
 50
0.0000
  0
INSERT
  2
ROUND_1
  8
THROUGH_DRL
 10
0.9377
 20
1.2873
 30
0.0000
 41
1.0000
 42
1.0000
 50
0.0000
  0
INSERT
  2
ROUND_1
  8
THROUGH_DRL
 10
0.9377
 20
1.3857
 30
0.0000
 41
1.0000
 42
1.0000
 50
0.0000
  0
INSERT
  2
ROUND_1
  8
THROUGH_DRL
 10
0.9377
 20
1.4841
 30
0.0000
 41
1.0000
 42
1.0000
 50
0.0000
  0
INSERT
  2
ROUND_1
  8
THROUGH_DRL
 10
0.9377
 20
1.5825
 30
0.0000
 41
1.0000
 42
1.0000
 50
0.0000
  0
INSERT
  2
ROUND_1
  8
THROUGH_DRL
 10
0.9377
 20
1.6810
 30
0.0000
 41
1.0000
 42
1.0000
 50
0.0000
  0
INSERT
  2
ROUND_1
  8
THROUGH_DRL
 10
0.9377
 20
1.7794
 30
0.0000
 41
1.0000
 42
1.0000
 50
0.0000
  0
INSERT
  2
ROUND_1
  8
THROUGH_DRL
 10
0.9377
 20
1.8778
 30
0.0000
 41
1.0000
 42
1.0000
 50
0.0000
  0
INSERT
  2
ROUND_1
  8
THROUGH_DRL
 10
0.9377
 20
1.9762
 30
0.0000
 41
1.0000
 42
1.0000
 50
0.0000
  0
INSERT
  2
ROUND_1
  8
THROUGH_DRL
 10
0.9377
 20
2.0747
 30
0.0000
 41
1.0000
 42
1.0000
 50
0.0000
  0
INSERT
  2
ROUND_1
  8
THROUGH_DRL
 10
0.9377
 20
2.1731
 30
0.0000
 41
1.0000
 42
1.0000
 50
0.0000
  0
INSERT
  2
ROUND_1
  8
THROUGH_DRL
 10
0.9377
 20
2.2715
 30
0.0000
 41
1.0000
 42
1.0000
 50
0.0000
  0
INSERT
  2
ROUND_1
  8
THROUGH_DRL
 10
0.9377
 20
2.3699
 30
0.0000
 41
1.0000
 42
1.0000
 50
0.0000
  0
INSERT
  2
ROUND_1
  8
THROUGH_DRL
 10
0.9377
 20
2.4684
 30
0.0000
 41
1.0000
 42
1.0000
 50
0.0000
  0
INSERT
  2
ROUND_1
  8
THROUGH_DRL
 10
0.9377
 20
2.5668
 30
0.0000
 41
1.0000
 42
1.0000
 50
0.0000
  0
INSERT
  2
ROUND_1
  8
THROUGH_DRL
 10
0.9377
 20
2.6652
 30
0.0000
 41
1.0000
 42
1.0000
 50
0.0000
  0
INSERT
  2
ROUND_1
  8
THROUGH_DRL
 10
0.9377
 20
2.7636
 30
0.0000
 41
1.0000
 42
1.0000
 50
0.0000
  0
INSERT
  2
ROUND_1
  8
THROUGH_DRL
 10
0.9377
 20
2.8621
 30
0.0000
 41
1.0000
 42
1.0000
 50
0.0000
  0
INSERT
  2
ROUND_1
  8
THROUGH_DRL
 10
0.9377
 20
2.9605
 30
0.0000
 41
1.0000
 42
1.0000
 50
0.0000
  0
INSERT
  2
ROUND_1
  8
THROUGH_DRL
 10
0.9377
 20
3.0589
 30
0.0000
 41
1.0000
 42
1.0000
 50
0.0000
  0
INSERT
  2
ROUND_1
  8
THROUGH_DRL
 10
0.9377
 20
3.1573
 30
0.0000
 41
1.0000
 42
1.0000
 50
0.0000
  0
INSERT
  2
ROUND_1
  8
THROUGH_DRL
 10
0.8341
 20
3.5617
 30
0.0000
 41
1.0000
 42
1.0000
 50
0.0000
  0
INSERT
  2
ROUND_1
  8
THROUGH_DRL
 10
0.7357
 20
3.5617
 30
0.0000
 41
1.0000
 42
1.0000
 50
0.0000
  0
INSERT
  2
ROUND_1
  8
THROUGH_DRL
 10
0.6373
 20
3.5617
 30
0.0000
 41
1.0000
 42
1.0000
 50
0.0000
  0
INSERT
  2
ROUND_1
  8
THROUGH_DRL
 10
1.2188
 20
3.6144
 30
0.0000
 41
1.0000
 42
1.0000
 50
0.0000
  0
INSERT
  2
ROUND_1
  8
THROUGH_DRL
 10
1.2188
 20
3.8144
 30
0.0000
 41
1.0000
 42
1.0000
 50
0.0000
  0
INSERT
  2
ROUND_3
  8
THROUGH_DRL
 10
1.9223
 20
3.0420
 30
0.0000
 41
1.0000
 42
1.0000
 50
0.0000
  0
INSERT
  2
ROUND_3
  8
THROUGH_DRL
 10
2.0133
 20
3.2900
 30
0.0000
 41
1.0000
 42
1.0000
 50
0.0000
  0
INSERT
  2
ROUND_3
  8
THROUGH_DRL
 10
2.0337
 20
3.4369
 30
0.0000
 41
1.0000
 42
1.0000
 50
0.0000
  0
INSERT
  2
ROUND_3
  8
THROUGH_DRL
 10
2.5160
 20
3.4357
 30
0.0000
 41
1.0000
 42
1.0000
 50
0.0000
  0
INSERT
  2
ROUND_3
  8
THROUGH_DRL
 10
2.2345
 20
3.9644
 30
0.0000
 41
1.0000
 42
1.0000
 50
0.0000
  0
INSERT
  2
ROUND_3
  8
THROUGH_DRL
 10
0.9337
 20
3.3534
 30
0.0000
 41
1.0000
 42
1.0000
 50
0.0000
  0
INSERT
  2
ROUND_3
  8
THROUGH_DRL
 10
0.7357
 20
3.2743
 30
0.0000
 41
1.0000
 42
1.0000
 50
0.0000
  0
INSERT
  2
ROUND_3
  8
THROUGH_DRL
 10
0.6670
 20
3.0996
 30
0.0000
 41
1.0000
 42
1.0000
 50
0.0000
  0
INSERT
  2
ROUND_3
  8
THROUGH_DRL
 10
0.7357
 20
2.7581
 30
0.0000
 41
1.0000
 42
1.0000
 50
0.0000
  0
INSERT
  2
ROUND_3
  8
THROUGH_DRL
 10
0.4593
 20
1.9762
 30
0.0000
 41
1.0000
 42
1.0000
 50
0.0000
  0
INSERT
  2
ROUND_3
  8
THROUGH_DRL
 10
1.0562
 20
1.5928
 30
0.0000
 41
1.0000
 42
1.0000
 50
0.0000
  0
INSERT
  2
ROUND_3
  8
THROUGH_DRL
 10
1.0743
 20
1.4841
 30
0.0000
 41
1.0000
 42
1.0000
 50
0.0000
  0
INSERT
  2
ROUND_3
  8
THROUGH_DRL
 10
1.0613
 20
1.3857
 30
0.0000
 41
1.0000
 42
1.0000
 50
0.0000
  0
INSERT
  2
ROUND_3
  8
THROUGH_DRL
 10
1.1436
 20
1.1617
 30
0.0000
 41
1.0000
 42
1.0000
 50
0.0000
  0
INSERT
  2
ROUND_3
  8
THROUGH_DRL
 10
1.1031
 20
0.9341
 30
0.0000
 41
1.0000
 42
1.0000
 50
0.0000
  0
INSERT
  2
ROUND_3
  8
THROUGH_DRL
 10
0.9168
 20
1.0302
 30
0.0000
 41
1.0000
 42
1.0000
 50
0.0000
  0
INSERT
  2
ROUND_3
  8
THROUGH_DRL
 10
1.2743
 20
0.6302
 30
0.0000
 41
1.0000
 42
1.0000
 50
0.0000
  0
INSERT
  2
ROUND_3
  8
THROUGH_DRL
 10
1.3984
 20
0.5633
 30
0.0000
 41
1.0000
 42
1.0000
 50
0.0000
  0
INSERT
  2
ROUND_3
  8
THROUGH_DRL
 10
1.7829
 20
0.9227
 30
0.0000
 41
1.0000
 42
1.0000
 50
0.0000
  0
INSERT
  2
ROUND_3
  8
THROUGH_DRL
 10
1.8739
 20
1.0148
 30
0.0000
 41
1.0000
 42
1.0000
 50
0.0000
  0
INSERT
  2
ROUND_3
  8
THROUGH_DRL
 10
1.6062
 20
1.1038
 30
0.0000
 41
1.0000
 42
1.0000
 50
0.0000
  0
INSERT
  2
ROUND_3
  8
THROUGH_DRL
 10
1.3995
 20
1.3711
 30
0.0000
 41
1.0000
 42
1.0000
 50
0.0000
  0
INSERT
  2
ROUND_3
  8
THROUGH_DRL
 10
1.3085
 20
1.4841
 30
0.0000
 41
1.0000
 42
1.0000
 50
0.0000
  0
INSERT
  2
ROUND_3
  8
THROUGH_DRL
 10
1.2262
 20
1.6042
 30
0.0000
 41
1.0000
 42
1.0000
 50
0.0000
  0
INSERT
  2
ROUND_3
  8
THROUGH_DRL
 10
1.8526
 20
2.0822
 30
0.0000
 41
1.0000
 42
1.0000
 50
0.0000
  0
INSERT
  2
ROUND_3
  8
THROUGH_DRL
 10
2.0530
 20
2.1577
 30
0.0000
 41
1.0000
 42
1.0000
 50
0.0000
  0
INSERT
  2
ROUND_3
  8
THROUGH_DRL
 10
1.7310
 20
2.2778
 30
0.0000
 41
1.0000
 42
1.0000
 50
0.0000
  0
INSERT
  2
ROUND_3
  8
THROUGH_DRL
 10
2.5192
 20
2.2633
 30
0.0000
 41
1.0000
 42
1.0000
 50
0.0000
  0
INSERT
  2
ROUND_3
  8
THROUGH_DRL
 10
1.9888
 20
0.4593
 30
0.0000
 41
1.0000
 42
1.0000
 50
0.0000
  0
ENDSEC
  0
EOF
