  0
SECTION
  2
HEADER
  9
$EXTMIN
 10
0.390945
 20
0.390945
 30
0.0000
  9
$EXTMAX
 10
2.695407
 20
4.046588
 30
0.0000
  0
ENDSEC
  0
SECTION
  2
TABLES
  0
TABLE
  2
LTYPE
 70
3
  0
LTYPE
  2
BYBLOCK
 70
0
  3

 72
65
 73
0
 40
0.0000
  0
LTYPE
  2
BYLAYER
 70
0
  3

 72
65
 73
0
 40
0.0000
  0
LTYPE
  2
CONTINUOUS
 70
0
  3
Solid line
 72
65
 73
0
 40
0.0000
  0
ENDTAB
  0
TABLE
  2
LAYER
 70
4
  0
LAYER
  2
0
 70
0
 62
7
  6
CONTINUOUS
  0
LAYER
  2
_GBR
 70
0
 62
2
  6
CONTINUOUS
  0
LAYER
  2
_GBR
 70
0
 62
6
  6
CONTINUOUS
  0
LAYER
  2
_GBR
 70
0
 62
1
  6
CONTINUOUS
  0
LAYER
  2
THROUGH_DRL
 70
0
 62
7
  6
CONTINUOUS
  0
ENDTAB
  0
TABLE
  2
STYLE
 70
0
  0
ENDTAB
  0
ENDSEC
  0
SECTION
  2
BLOCKS
  0
BLOCK
  2
ROUND_2
  3
ROUND_2
 70
64
 10
0.0000
 20
0.0000
 30
0.0000
  0
CIRCLE
  8
0
 10
0.0000
 20
0.0000
 30
0.0000
 40
0.002756
  0
ENDBLK
  0
BLOCK
  2
ROUND_5
  3
ROUND_5
 70
64
 10
0.0000
 20
0.0000
 30
0.0000
  0
CIRCLE
  8
0
 10
0.0000
 20
0.0000
 30
0.0000
 40
0.015748
  0
ENDBLK
  0
BLOCK
  2
ROUND_6
  3
ROUND_6
 70
64
 10
0.0000
 20
0.0000
 30
0.0000
  0
CIRCLE
  8
0
 10
0.0000
 20
0.0000
 30
0.0000
 40
0.0118109
  0
ENDBLK
  0
BLOCK
  2
ROUND_7
  3
ROUND_7
 70
64
 10
0.0000
 20
0.0000
 30
0.0000
  0
CIRCLE
  8
0
 10
0.0000
 20
0.0000
 30
0.0000
 40
0.0324805
  0
ENDBLK
  0
BLOCK
  2
SQUARE_8
  3
SQUARE_8
 70
64
 10
0.0000
 20
0.0000
 30
0.0000
  0
SOLID
  8
0
 10
0.03937
 20
0.03937
 30
0.0000
 11
0.03937
 21
-0.03937
 31
0.0000
 12
-0.03937
 22
0.03937
 32
0.0000
 13
-0.03937
 23
-0.03937
 33
0.0000
  0
ENDBLK
  0
BLOCK
  2
ROUND_9
  3
ROUND_9
 70
64
 10
0.0000
 20
0.0000
 30
0.0000
  0
CIRCLE
  8
0
 10
0.0000
 20
0.0000
 30
0.0000
 40
0.03937
  0
ENDBLK
  0
BLOCK
  2
OBLONG_10
  3
OBLONG_10
 70
64
 10
0.0000
 20
0.0000
 30
0.0000
  0
POLYLINE
  8
0
 66
1
 10
0.0000
 20
0.0000
 30
0.0000
 40
0.07874
 41
0.07874
  0
VERTEX
  8
0
 10
0.0000
 20
0.059055
 30
0.0000
  0
VERTEX
  8
0
 10
0.0000
 20
-0.059055
 30
0.0000
  0
SEQEND
  0
POLYLINE
  8
0
 66
1
 10
0.0000
 20
0.0000
 30
0.0000
 70
1
 40
0.03937
 41
0.03937
  0
VERTEX
  8
0
 10
-0.019685
 20
0.059055
 30
0.0000
 42
1
  0
VERTEX
  8
0
 10
0.019685
 20
0.059055
 30
0.0000
 42
1
  0
SEQEND
  0
POLYLINE
  8
0
 66
1
 10
0.0000
 20
0.0000
 30
0.0000
 70
1
 40
0.03937
 41
0.03937
  0
VERTEX
  8
0
 10
-0.019685
 20
-0.059055
 30
0.0000
 42
1
  0
VERTEX
  8
0
 10
0.019685
 20
-0.059055
 30
0.0000
 42
1
  0
SEQEND
  0
ENDBLK
  0
BLOCK
  2
OBLONG_13
  3
OBLONG_13
 70
64
 10
0.0000
 20
0.0000
 30
0.0000
  0
POLYLINE
  8
0
 66
1
 10
0.0000
 20
0.0000
 30
0.0000
 40
0.07874
 41
0.07874
  0
VERTEX
  8
0
 10
0.0000
 20
0.0492125
 30
0.0000
  0
VERTEX
  8
0
 10
0.0000
 20
-0.0492125
 30
0.0000
  0
SEQEND
  0
POLYLINE
  8
0
 66
1
 10
0.0000
 20
0.0000
 30
0.0000
 70
1
 40
0.03937
 41
0.03937
  0
VERTEX
  8
0
 10
-0.019685
 20
0.0492125
 30
0.0000
 42
1
  0
VERTEX
  8
0
 10
0.019685
 20
0.0492125
 30
0.0000
 42
1
  0
SEQEND
  0
POLYLINE
  8
0
 66
1
 10
0.0000
 20
0.0000
 30
0.0000
 70
1
 40
0.03937
 41
0.03937
  0
VERTEX
  8
0
 10
-0.019685
 20
-0.0492125
 30
0.0000
 42
1
  0
VERTEX
  8
0
 10
0.019685
 20
-0.0492125
 30
0.0000
 42
1
  0
SEQEND
  0
ENDBLK
  0
BLOCK
  2
OBLONG_14
  3
OBLONG_14
 70
64
 10
0.0000
 20
0.0000
 30
0.0000
  0
POLYLINE
  8
0
 66
1
 10
0.0000
 20
0.0000
 30
0.0000
 40
0.07874
 41
0.07874
  0
VERTEX
  8
0
 10
0.0492125
 20
0.0000
 30
0.0000
  0
VERTEX
  8
0
 10
-0.0492125
 20
0.0000
 30
0.0000
  0
SEQEND
  0
POLYLINE
  8
0
 66
1
 10
0.0000
 20
0.0000
 30
0.0000
 70
1
 40
0.03937
 41
0.03937
  0
VERTEX
  8
0
 10
0.0295276
 20
0.0000
 30
0.0000
 42
1
  0
VERTEX
  8
0
 10
0.0688975
 20
0.0000
 30
0.0000
 42
1
  0
SEQEND
  0
POLYLINE
  8
0
 66
1
 10
0.0000
 20
0.0000
 30
0.0000
 70
1
 40
0.03937
 41
0.03937
  0
VERTEX
  8
0
 10
-0.0688975
 20
0.0000
 30
0.0000
 42
1
  0
VERTEX
  8
0
 10
-0.0295276
 20
0.0000
 30
0.0000
 42
1
  0
SEQEND
  0
ENDBLK
  0
BLOCK
  2
RECTANGLE_15
  3
RECTANGLE_15
 70
64
 10
0.0000
 20
0.0000
 30
0.0000
  0
SOLID
  8
0
 10
0.031496
 20
0.035433
 30
0.0000
 11
0.031496
 21
-0.035433
 31
0.0000
 12
-0.031496
 22
0.035433
 32
0.0000
 13
-0.031496
 23
-0.035433
 33
0.0000
  0
ENDBLK
  0
BLOCK
  2
RECTANGLE_16
  3
RECTANGLE_16
 70
64
 10
0.0000
 20
0.0000
 30
0.0000
  0
SOLID
  8
0
 10
0.03937
 20
0.0118109
 30
0.0000
 11
0.03937
 21
-0.0118109
 31
0.0000
 12
-0.03937
 22
0.0118109
 32
0.0000
 13
-0.03937
 23
-0.0118109
 33
0.0000
  0
ENDBLK
  0
BLOCK
  2
RECTANGLE_18
  3
RECTANGLE_18
 70
64
 10
0.0000
 20
0.0000
 30
0.0000
  0
SOLID
  8
0
 10
0.042323
 20
0.0187009
 30
0.0000
 11
0.042323
 21
-0.0187009
 31
0.0000
 12
-0.042323
 22
0.0187009
 32
0.0000
 13
-0.042323
 23
-0.0187009
 33
0.0000
  0
ENDBLK
  0
BLOCK
  2
RECTANGLE_19
  3
RECTANGLE_19
 70
64
 10
0.0000
 20
0.0000
 30
0.0000
  0
SOLID
  8
0
 10
0.042323
 20
0.0639765
 30
0.0000
 11
0.042323
 21
-0.0639765
 31
0.0000
 12
-0.042323
 22
0.0639765
 32
0.0000
 13
-0.042323
 23
-0.0639765
 33
0.0000
  0
ENDBLK
  0
BLOCK
  2
ROUND_20
  3
ROUND_20
 70
64
 10
0.0000
 20
0.0000
 30
0.0000
  0
CIRCLE
  8
0
 10
0.0000
 20
0.0000
 30
0.0000
 40
0.03937
  0
ENDBLK
  0
ENDSEC
  0
SECTION
  2
ENTITIES
  0
POLYLINE
  8
_GBR
 66
1
 10
0.0000
 20
0.0000
 30
0.0000
 40
0.005512
 41
0.005512
  0
VERTEX
  8
_GBR
 10
0.393701
 20
4.043832
 30
0.0000
  0
VERTEX
  8
_GBR
 10
2.692651
 20
4.043832
 30
0.0000
  0
VERTEX
  8
_GBR
 10
2.692651
 20
0.393701
 30
0.0000
  0
VERTEX
  8
_GBR
 10
0.393701
 20
0.393701
 30
0.0000
  0
VERTEX
  8
_GBR
 10
0.393701
 20
4.043832
 30
0.0000
  0
SEQEND
  0
ENDSEC
  0
EOF
